<mxfile host="app.diagrams.net" modified="2021-05-31T15:07:25.163Z" agent="5.0 (X11)" etag="ioiuIfeYeHrWaf2kDSaO" version="14.7.0" type="github">
  <diagram id="R2lEEEUBdFMjLlhIrx00" name="Page-1">
    <mxGraphModel dx="2370" dy="1280" grid="1" gridSize="10" guides="1" tooltips="1" connect="1" arrows="1" fold="1" page="1" pageScale="1" pageWidth="1654" pageHeight="1169" math="0" shadow="0" extFonts="Permanent Marker^https://fonts.googleapis.com/css?family=Permanent+Marker">
      <root>
        <mxCell id="0" />
        <mxCell id="1" parent="0" />
        <mxCell id="C-vyLk0tnHw3VtMMgP7b-23" value="machines" style="shape=table;startSize=30;container=1;collapsible=1;childLayout=tableLayout;fixedRows=1;rowLines=0;fontStyle=1;align=center;resizeLast=1;" parent="1" vertex="1">
          <mxGeometry x="120" y="360" width="200" height="240" as="geometry" />
        </mxCell>
        <mxCell id="C-vyLk0tnHw3VtMMgP7b-24" value="" style="shape=partialRectangle;collapsible=0;dropTarget=0;pointerEvents=0;fillColor=none;points=[[0,0.5],[1,0.5]];portConstraint=eastwest;top=0;left=0;right=0;bottom=1;" parent="C-vyLk0tnHw3VtMMgP7b-23" vertex="1">
          <mxGeometry y="30" width="200" height="30" as="geometry" />
        </mxCell>
        <mxCell id="C-vyLk0tnHw3VtMMgP7b-25" value="PK" style="shape=partialRectangle;overflow=hidden;connectable=0;fillColor=none;top=0;left=0;bottom=0;right=0;fontStyle=1;" parent="C-vyLk0tnHw3VtMMgP7b-24" vertex="1">
          <mxGeometry width="30" height="30" as="geometry" />
        </mxCell>
        <mxCell id="C-vyLk0tnHw3VtMMgP7b-26" value="id varchar(24) NOT NULL" style="shape=partialRectangle;overflow=hidden;connectable=0;fillColor=none;top=0;left=0;bottom=0;right=0;align=left;spacingLeft=6;fontStyle=5;" parent="C-vyLk0tnHw3VtMMgP7b-24" vertex="1">
          <mxGeometry x="30" width="170" height="30" as="geometry" />
        </mxCell>
        <mxCell id="SnUNg1FBfr4_eRWwD1X1-3" value="" style="shape=partialRectangle;collapsible=0;dropTarget=0;pointerEvents=0;fillColor=none;top=0;left=0;bottom=0;right=0;points=[[0,0.5],[1,0.5]];portConstraint=eastwest;" vertex="1" parent="C-vyLk0tnHw3VtMMgP7b-23">
          <mxGeometry y="60" width="200" height="20" as="geometry" />
        </mxCell>
        <mxCell id="SnUNg1FBfr4_eRWwD1X1-4" value="" style="shape=partialRectangle;connectable=0;fillColor=none;top=0;left=0;bottom=0;right=0;editable=1;overflow=hidden;" vertex="1" parent="SnUNg1FBfr4_eRWwD1X1-3">
          <mxGeometry width="30" height="20" as="geometry" />
        </mxCell>
        <mxCell id="SnUNg1FBfr4_eRWwD1X1-5" value="tenant_id varchar(24)&lt;br&gt;" style="shape=partialRectangle;connectable=0;fillColor=none;top=0;left=0;bottom=0;right=0;align=left;spacingLeft=6;overflow=hidden;verticalAlign=middle;html=1;" vertex="1" parent="SnUNg1FBfr4_eRWwD1X1-3">
          <mxGeometry x="30" width="170" height="20" as="geometry" />
        </mxCell>
        <mxCell id="SnUNg1FBfr4_eRWwD1X1-122" value="" style="shape=partialRectangle;collapsible=0;dropTarget=0;pointerEvents=0;fillColor=none;top=0;left=0;bottom=0;right=0;points=[[0,0.5],[1,0.5]];portConstraint=eastwest;" vertex="1" parent="C-vyLk0tnHw3VtMMgP7b-23">
          <mxGeometry y="80" width="200" height="20" as="geometry" />
        </mxCell>
        <mxCell id="SnUNg1FBfr4_eRWwD1X1-123" value="" style="shape=partialRectangle;connectable=0;fillColor=none;top=0;left=0;bottom=0;right=0;editable=1;overflow=hidden;" vertex="1" parent="SnUNg1FBfr4_eRWwD1X1-122">
          <mxGeometry width="30" height="20" as="geometry" />
        </mxCell>
        <mxCell id="SnUNg1FBfr4_eRWwD1X1-124" value="machine_type_id varchar(24)" style="shape=partialRectangle;connectable=0;fillColor=none;top=0;left=0;bottom=0;right=0;align=left;spacingLeft=6;overflow=hidden;" vertex="1" parent="SnUNg1FBfr4_eRWwD1X1-122">
          <mxGeometry x="30" width="170" height="20" as="geometry" />
        </mxCell>
        <mxCell id="SnUNg1FBfr4_eRWwD1X1-7" value="" style="shape=partialRectangle;collapsible=0;dropTarget=0;pointerEvents=0;fillColor=none;top=0;left=0;bottom=0;right=0;points=[[0,0.5],[1,0.5]];portConstraint=eastwest;" vertex="1" parent="C-vyLk0tnHw3VtMMgP7b-23">
          <mxGeometry y="100" width="200" height="20" as="geometry" />
        </mxCell>
        <mxCell id="SnUNg1FBfr4_eRWwD1X1-8" value="" style="shape=partialRectangle;connectable=0;fillColor=none;top=0;left=0;bottom=0;right=0;editable=1;overflow=hidden;" vertex="1" parent="SnUNg1FBfr4_eRWwD1X1-7">
          <mxGeometry width="30" height="20" as="geometry" />
        </mxCell>
        <mxCell id="SnUNg1FBfr4_eRWwD1X1-9" value="model_id varchar(24)&#xa;" style="shape=partialRectangle;connectable=0;fillColor=none;top=0;left=0;bottom=0;right=0;align=left;spacingLeft=6;overflow=hidden;" vertex="1" parent="SnUNg1FBfr4_eRWwD1X1-7">
          <mxGeometry x="30" width="170" height="20" as="geometry" />
        </mxCell>
        <mxCell id="C-vyLk0tnHw3VtMMgP7b-27" value="" style="shape=partialRectangle;collapsible=0;dropTarget=0;pointerEvents=0;fillColor=none;points=[[0,0.5],[1,0.5]];portConstraint=eastwest;top=0;left=0;right=0;bottom=0;" parent="C-vyLk0tnHw3VtMMgP7b-23" vertex="1">
          <mxGeometry y="120" width="200" height="20" as="geometry" />
        </mxCell>
        <mxCell id="C-vyLk0tnHw3VtMMgP7b-28" value="" style="shape=partialRectangle;overflow=hidden;connectable=0;fillColor=none;top=0;left=0;bottom=0;right=0;" parent="C-vyLk0tnHw3VtMMgP7b-27" vertex="1">
          <mxGeometry width="30" height="20" as="geometry" />
        </mxCell>
        <mxCell id="C-vyLk0tnHw3VtMMgP7b-29" value="reference_name varchar(255)&#xa;" style="shape=partialRectangle;overflow=hidden;connectable=0;fillColor=none;top=0;left=0;bottom=0;right=0;align=left;spacingLeft=6;" parent="C-vyLk0tnHw3VtMMgP7b-27" vertex="1">
          <mxGeometry x="30" width="170" height="20" as="geometry" />
        </mxCell>
        <mxCell id="SnUNg1FBfr4_eRWwD1X1-145" value="" style="shape=partialRectangle;collapsible=0;dropTarget=0;pointerEvents=0;fillColor=none;top=0;left=0;bottom=0;right=0;points=[[0,0.5],[1,0.5]];portConstraint=eastwest;" vertex="1" parent="C-vyLk0tnHw3VtMMgP7b-23">
          <mxGeometry y="140" width="200" height="20" as="geometry" />
        </mxCell>
        <mxCell id="SnUNg1FBfr4_eRWwD1X1-146" value="" style="shape=partialRectangle;connectable=0;fillColor=none;top=0;left=0;bottom=0;right=0;editable=1;overflow=hidden;" vertex="1" parent="SnUNg1FBfr4_eRWwD1X1-145">
          <mxGeometry width="30" height="20" as="geometry" />
        </mxCell>
        <mxCell id="SnUNg1FBfr4_eRWwD1X1-147" value="serial_number varchar(24)" style="shape=partialRectangle;connectable=0;fillColor=none;top=0;left=0;bottom=0;right=0;align=left;spacingLeft=6;overflow=hidden;" vertex="1" parent="SnUNg1FBfr4_eRWwD1X1-145">
          <mxGeometry x="30" width="170" height="20" as="geometry" />
        </mxCell>
        <mxCell id="SnUNg1FBfr4_eRWwD1X1-126" value="" style="shape=partialRectangle;collapsible=0;dropTarget=0;pointerEvents=0;fillColor=none;top=0;left=0;bottom=0;right=0;points=[[0,0.5],[1,0.5]];portConstraint=eastwest;" vertex="1" parent="C-vyLk0tnHw3VtMMgP7b-23">
          <mxGeometry y="160" width="200" height="20" as="geometry" />
        </mxCell>
        <mxCell id="SnUNg1FBfr4_eRWwD1X1-127" value="" style="shape=partialRectangle;connectable=0;fillColor=none;top=0;left=0;bottom=0;right=0;editable=1;overflow=hidden;" vertex="1" parent="SnUNg1FBfr4_eRWwD1X1-126">
          <mxGeometry width="30" height="20" as="geometry" />
        </mxCell>
        <mxCell id="SnUNg1FBfr4_eRWwD1X1-128" value="status int" style="shape=partialRectangle;connectable=0;fillColor=none;top=0;left=0;bottom=0;right=0;align=left;spacingLeft=6;overflow=hidden;" vertex="1" parent="SnUNg1FBfr4_eRWwD1X1-126">
          <mxGeometry x="30" width="170" height="20" as="geometry" />
        </mxCell>
        <mxCell id="SnUNg1FBfr4_eRWwD1X1-137" value="" style="shape=partialRectangle;collapsible=0;dropTarget=0;pointerEvents=0;fillColor=none;top=0;left=0;bottom=0;right=0;points=[[0,0.5],[1,0.5]];portConstraint=eastwest;" vertex="1" parent="C-vyLk0tnHw3VtMMgP7b-23">
          <mxGeometry y="180" width="200" height="20" as="geometry" />
        </mxCell>
        <mxCell id="SnUNg1FBfr4_eRWwD1X1-138" value="" style="shape=partialRectangle;connectable=0;fillColor=none;top=0;left=0;bottom=0;right=0;editable=1;overflow=hidden;" vertex="1" parent="SnUNg1FBfr4_eRWwD1X1-137">
          <mxGeometry width="30" height="20" as="geometry" />
        </mxCell>
        <mxCell id="SnUNg1FBfr4_eRWwD1X1-139" value="payment_type enum(&#39;1&#39;,&#39;2&#39;)" style="shape=partialRectangle;connectable=0;fillColor=none;top=0;left=0;bottom=0;right=0;align=left;spacingLeft=6;overflow=hidden;" vertex="1" parent="SnUNg1FBfr4_eRWwD1X1-137">
          <mxGeometry x="30" width="170" height="20" as="geometry" />
        </mxCell>
        <mxCell id="SnUNg1FBfr4_eRWwD1X1-141" value="" style="shape=partialRectangle;collapsible=0;dropTarget=0;pointerEvents=0;fillColor=none;top=0;left=0;bottom=0;right=0;points=[[0,0.5],[1,0.5]];portConstraint=eastwest;" vertex="1" parent="C-vyLk0tnHw3VtMMgP7b-23">
          <mxGeometry y="200" width="200" height="20" as="geometry" />
        </mxCell>
        <mxCell id="SnUNg1FBfr4_eRWwD1X1-142" value="" style="shape=partialRectangle;connectable=0;fillColor=none;top=0;left=0;bottom=0;right=0;editable=1;overflow=hidden;" vertex="1" parent="SnUNg1FBfr4_eRWwD1X1-141">
          <mxGeometry width="30" height="20" as="geometry" />
        </mxCell>
        <mxCell id="SnUNg1FBfr4_eRWwD1X1-143" value="capacity int" style="shape=partialRectangle;connectable=0;fillColor=none;top=0;left=0;bottom=0;right=0;align=left;spacingLeft=6;overflow=hidden;" vertex="1" parent="SnUNg1FBfr4_eRWwD1X1-141">
          <mxGeometry x="30" width="170" height="20" as="geometry" />
        </mxCell>
        <mxCell id="SnUNg1FBfr4_eRWwD1X1-17" value="tenants" style="shape=table;startSize=30;container=1;collapsible=1;childLayout=tableLayout;fixedRows=1;rowLines=0;fontStyle=1;align=center;resizeLast=1;html=1;" vertex="1" parent="1">
          <mxGeometry x="400" y="360" width="200" height="160" as="geometry" />
        </mxCell>
        <mxCell id="SnUNg1FBfr4_eRWwD1X1-18" value="" style="shape=partialRectangle;collapsible=0;dropTarget=0;pointerEvents=0;fillColor=none;top=0;left=0;bottom=1;right=0;points=[[0,0.5],[1,0.5]];portConstraint=eastwest;" vertex="1" parent="SnUNg1FBfr4_eRWwD1X1-17">
          <mxGeometry y="30" width="200" height="30" as="geometry" />
        </mxCell>
        <mxCell id="SnUNg1FBfr4_eRWwD1X1-19" value="PK" style="shape=partialRectangle;connectable=0;fillColor=none;top=0;left=0;bottom=0;right=0;fontStyle=1;overflow=hidden;" vertex="1" parent="SnUNg1FBfr4_eRWwD1X1-18">
          <mxGeometry width="30" height="30" as="geometry" />
        </mxCell>
        <mxCell id="SnUNg1FBfr4_eRWwD1X1-20" value="id varchar(24) NOT NULL" style="shape=partialRectangle;connectable=0;fillColor=none;top=0;left=0;bottom=0;right=0;align=left;spacingLeft=6;fontStyle=5;overflow=hidden;" vertex="1" parent="SnUNg1FBfr4_eRWwD1X1-18">
          <mxGeometry x="30" width="170" height="30" as="geometry" />
        </mxCell>
        <mxCell id="SnUNg1FBfr4_eRWwD1X1-21" value="" style="shape=partialRectangle;collapsible=0;dropTarget=0;pointerEvents=0;fillColor=none;top=0;left=0;bottom=0;right=0;points=[[0,0.5],[1,0.5]];portConstraint=eastwest;" vertex="1" parent="SnUNg1FBfr4_eRWwD1X1-17">
          <mxGeometry y="60" width="200" height="20" as="geometry" />
        </mxCell>
        <mxCell id="SnUNg1FBfr4_eRWwD1X1-22" value="" style="shape=partialRectangle;connectable=0;fillColor=none;top=0;left=0;bottom=0;right=0;editable=1;overflow=hidden;" vertex="1" parent="SnUNg1FBfr4_eRWwD1X1-21">
          <mxGeometry width="30" height="20" as="geometry" />
        </mxCell>
        <mxCell id="SnUNg1FBfr4_eRWwD1X1-23" value="code varchar(8)" style="shape=partialRectangle;connectable=0;fillColor=none;top=0;left=0;bottom=0;right=0;align=left;spacingLeft=6;overflow=hidden;" vertex="1" parent="SnUNg1FBfr4_eRWwD1X1-21">
          <mxGeometry x="30" width="170" height="20" as="geometry" />
        </mxCell>
        <mxCell id="SnUNg1FBfr4_eRWwD1X1-24" value="" style="shape=partialRectangle;collapsible=0;dropTarget=0;pointerEvents=0;fillColor=none;top=0;left=0;bottom=0;right=0;points=[[0,0.5],[1,0.5]];portConstraint=eastwest;" vertex="1" parent="SnUNg1FBfr4_eRWwD1X1-17">
          <mxGeometry y="80" width="200" height="20" as="geometry" />
        </mxCell>
        <mxCell id="SnUNg1FBfr4_eRWwD1X1-25" value="" style="shape=partialRectangle;connectable=0;fillColor=none;top=0;left=0;bottom=0;right=0;editable=1;overflow=hidden;" vertex="1" parent="SnUNg1FBfr4_eRWwD1X1-24">
          <mxGeometry width="30" height="20" as="geometry" />
        </mxCell>
        <mxCell id="SnUNg1FBfr4_eRWwD1X1-26" value="name varchar(255)" style="shape=partialRectangle;connectable=0;fillColor=none;top=0;left=0;bottom=0;right=0;align=left;spacingLeft=6;overflow=hidden;" vertex="1" parent="SnUNg1FBfr4_eRWwD1X1-24">
          <mxGeometry x="30" width="170" height="20" as="geometry" />
        </mxCell>
        <mxCell id="SnUNg1FBfr4_eRWwD1X1-27" value="" style="shape=partialRectangle;collapsible=0;dropTarget=0;pointerEvents=0;fillColor=none;top=0;left=0;bottom=0;right=0;points=[[0,0.5],[1,0.5]];portConstraint=eastwest;" vertex="1" parent="SnUNg1FBfr4_eRWwD1X1-17">
          <mxGeometry y="100" width="200" height="30" as="geometry" />
        </mxCell>
        <mxCell id="SnUNg1FBfr4_eRWwD1X1-28" value="" style="shape=partialRectangle;connectable=0;fillColor=none;top=0;left=0;bottom=0;right=0;editable=1;overflow=hidden;" vertex="1" parent="SnUNg1FBfr4_eRWwD1X1-27">
          <mxGeometry width="30" height="30" as="geometry" />
        </mxCell>
        <mxCell id="SnUNg1FBfr4_eRWwD1X1-29" value="" style="shape=partialRectangle;connectable=0;fillColor=none;top=0;left=0;bottom=0;right=0;align=left;spacingLeft=6;overflow=hidden;" vertex="1" parent="SnUNg1FBfr4_eRWwD1X1-27">
          <mxGeometry x="30" width="170" height="30" as="geometry" />
        </mxCell>
        <mxCell id="SnUNg1FBfr4_eRWwD1X1-30" value="machine_models" style="shape=table;startSize=30;container=1;collapsible=1;childLayout=tableLayout;fixedRows=1;rowLines=0;fontStyle=1;align=center;resizeLast=1;html=1;" vertex="1" parent="1">
          <mxGeometry x="120" y="680" width="200" height="160" as="geometry" />
        </mxCell>
        <mxCell id="SnUNg1FBfr4_eRWwD1X1-31" value="" style="shape=partialRectangle;collapsible=0;dropTarget=0;pointerEvents=0;fillColor=none;top=0;left=0;bottom=1;right=0;points=[[0,0.5],[1,0.5]];portConstraint=eastwest;" vertex="1" parent="SnUNg1FBfr4_eRWwD1X1-30">
          <mxGeometry y="30" width="200" height="30" as="geometry" />
        </mxCell>
        <mxCell id="SnUNg1FBfr4_eRWwD1X1-32" value="PK" style="shape=partialRectangle;connectable=0;fillColor=none;top=0;left=0;bottom=0;right=0;fontStyle=1;overflow=hidden;" vertex="1" parent="SnUNg1FBfr4_eRWwD1X1-31">
          <mxGeometry width="30" height="30" as="geometry" />
        </mxCell>
        <mxCell id="SnUNg1FBfr4_eRWwD1X1-33" value="id varchar(24) NOT NULL" style="shape=partialRectangle;connectable=0;fillColor=none;top=0;left=0;bottom=0;right=0;align=left;spacingLeft=6;fontStyle=5;overflow=hidden;" vertex="1" parent="SnUNg1FBfr4_eRWwD1X1-31">
          <mxGeometry x="30" width="170" height="30" as="geometry" />
        </mxCell>
        <mxCell id="SnUNg1FBfr4_eRWwD1X1-34" value="" style="shape=partialRectangle;collapsible=0;dropTarget=0;pointerEvents=0;fillColor=none;top=0;left=0;bottom=0;right=0;points=[[0,0.5],[1,0.5]];portConstraint=eastwest;" vertex="1" parent="SnUNg1FBfr4_eRWwD1X1-30">
          <mxGeometry y="60" width="200" height="20" as="geometry" />
        </mxCell>
        <mxCell id="SnUNg1FBfr4_eRWwD1X1-35" value="" style="shape=partialRectangle;connectable=0;fillColor=none;top=0;left=0;bottom=0;right=0;editable=1;overflow=hidden;" vertex="1" parent="SnUNg1FBfr4_eRWwD1X1-34">
          <mxGeometry width="30" height="20" as="geometry" />
        </mxCell>
        <mxCell id="SnUNg1FBfr4_eRWwD1X1-36" value="name varchar(255)" style="shape=partialRectangle;connectable=0;fillColor=none;top=0;left=0;bottom=0;right=0;align=left;spacingLeft=6;overflow=hidden;" vertex="1" parent="SnUNg1FBfr4_eRWwD1X1-34">
          <mxGeometry x="30" width="170" height="20" as="geometry" />
        </mxCell>
        <mxCell id="SnUNg1FBfr4_eRWwD1X1-37" value="" style="shape=partialRectangle;collapsible=0;dropTarget=0;pointerEvents=0;fillColor=none;top=0;left=0;bottom=0;right=0;points=[[0,0.5],[1,0.5]];portConstraint=eastwest;" vertex="1" parent="SnUNg1FBfr4_eRWwD1X1-30">
          <mxGeometry y="80" width="200" height="20" as="geometry" />
        </mxCell>
        <mxCell id="SnUNg1FBfr4_eRWwD1X1-38" value="" style="shape=partialRectangle;connectable=0;fillColor=none;top=0;left=0;bottom=0;right=0;editable=1;overflow=hidden;" vertex="1" parent="SnUNg1FBfr4_eRWwD1X1-37">
          <mxGeometry width="30" height="20" as="geometry" />
        </mxCell>
        <mxCell id="SnUNg1FBfr4_eRWwD1X1-39" value="description nvarchar(255)" style="shape=partialRectangle;connectable=0;fillColor=none;top=0;left=0;bottom=0;right=0;align=left;spacingLeft=6;overflow=hidden;" vertex="1" parent="SnUNg1FBfr4_eRWwD1X1-37">
          <mxGeometry x="30" width="170" height="20" as="geometry" />
        </mxCell>
        <mxCell id="SnUNg1FBfr4_eRWwD1X1-40" value="" style="shape=partialRectangle;collapsible=0;dropTarget=0;pointerEvents=0;fillColor=none;top=0;left=0;bottom=0;right=0;points=[[0,0.5],[1,0.5]];portConstraint=eastwest;" vertex="1" parent="SnUNg1FBfr4_eRWwD1X1-30">
          <mxGeometry y="100" width="200" height="30" as="geometry" />
        </mxCell>
        <mxCell id="SnUNg1FBfr4_eRWwD1X1-41" value="" style="shape=partialRectangle;connectable=0;fillColor=none;top=0;left=0;bottom=0;right=0;editable=1;overflow=hidden;" vertex="1" parent="SnUNg1FBfr4_eRWwD1X1-40">
          <mxGeometry width="30" height="30" as="geometry" />
        </mxCell>
        <mxCell id="SnUNg1FBfr4_eRWwD1X1-42" value="" style="shape=partialRectangle;connectable=0;fillColor=none;top=0;left=0;bottom=0;right=0;align=left;spacingLeft=6;overflow=hidden;" vertex="1" parent="SnUNg1FBfr4_eRWwD1X1-40">
          <mxGeometry x="30" width="170" height="30" as="geometry" />
        </mxCell>
        <mxCell id="SnUNg1FBfr4_eRWwD1X1-43" value="machine_types" style="shape=table;startSize=30;container=1;collapsible=1;childLayout=tableLayout;fixedRows=1;rowLines=0;fontStyle=1;align=center;resizeLast=1;html=1;" vertex="1" parent="1">
          <mxGeometry x="120" y="40" width="200" height="160" as="geometry" />
        </mxCell>
        <mxCell id="SnUNg1FBfr4_eRWwD1X1-44" value="" style="shape=partialRectangle;collapsible=0;dropTarget=0;pointerEvents=0;fillColor=none;top=0;left=0;bottom=1;right=0;points=[[0,0.5],[1,0.5]];portConstraint=eastwest;" vertex="1" parent="SnUNg1FBfr4_eRWwD1X1-43">
          <mxGeometry y="30" width="200" height="30" as="geometry" />
        </mxCell>
        <mxCell id="SnUNg1FBfr4_eRWwD1X1-45" value="PK" style="shape=partialRectangle;connectable=0;fillColor=none;top=0;left=0;bottom=0;right=0;fontStyle=1;overflow=hidden;" vertex="1" parent="SnUNg1FBfr4_eRWwD1X1-44">
          <mxGeometry width="30" height="30" as="geometry" />
        </mxCell>
        <mxCell id="SnUNg1FBfr4_eRWwD1X1-46" value="id varchar(24) NOT NULL" style="shape=partialRectangle;connectable=0;fillColor=none;top=0;left=0;bottom=0;right=0;align=left;spacingLeft=6;fontStyle=5;overflow=hidden;" vertex="1" parent="SnUNg1FBfr4_eRWwD1X1-44">
          <mxGeometry x="30" width="170" height="30" as="geometry" />
        </mxCell>
        <mxCell id="SnUNg1FBfr4_eRWwD1X1-47" value="" style="shape=partialRectangle;collapsible=0;dropTarget=0;pointerEvents=0;fillColor=none;top=0;left=0;bottom=0;right=0;points=[[0,0.5],[1,0.5]];portConstraint=eastwest;" vertex="1" parent="SnUNg1FBfr4_eRWwD1X1-43">
          <mxGeometry y="60" width="200" height="20" as="geometry" />
        </mxCell>
        <mxCell id="SnUNg1FBfr4_eRWwD1X1-48" value="" style="shape=partialRectangle;connectable=0;fillColor=none;top=0;left=0;bottom=0;right=0;editable=1;overflow=hidden;" vertex="1" parent="SnUNg1FBfr4_eRWwD1X1-47">
          <mxGeometry width="30" height="20" as="geometry" />
        </mxCell>
        <mxCell id="SnUNg1FBfr4_eRWwD1X1-49" value="name varchar(255)" style="shape=partialRectangle;connectable=0;fillColor=none;top=0;left=0;bottom=0;right=0;align=left;spacingLeft=6;overflow=hidden;" vertex="1" parent="SnUNg1FBfr4_eRWwD1X1-47">
          <mxGeometry x="30" width="170" height="20" as="geometry" />
        </mxCell>
        <mxCell id="SnUNg1FBfr4_eRWwD1X1-50" value="" style="shape=partialRectangle;collapsible=0;dropTarget=0;pointerEvents=0;fillColor=none;top=0;left=0;bottom=0;right=0;points=[[0,0.5],[1,0.5]];portConstraint=eastwest;" vertex="1" parent="SnUNg1FBfr4_eRWwD1X1-43">
          <mxGeometry y="80" width="200" height="20" as="geometry" />
        </mxCell>
        <mxCell id="SnUNg1FBfr4_eRWwD1X1-51" value="" style="shape=partialRectangle;connectable=0;fillColor=none;top=0;left=0;bottom=0;right=0;editable=1;overflow=hidden;" vertex="1" parent="SnUNg1FBfr4_eRWwD1X1-50">
          <mxGeometry width="30" height="20" as="geometry" />
        </mxCell>
        <mxCell id="SnUNg1FBfr4_eRWwD1X1-52" value="description varchar(255)" style="shape=partialRectangle;connectable=0;fillColor=none;top=0;left=0;bottom=0;right=0;align=left;spacingLeft=6;overflow=hidden;" vertex="1" parent="SnUNg1FBfr4_eRWwD1X1-50">
          <mxGeometry x="30" width="170" height="20" as="geometry" />
        </mxCell>
        <mxCell id="SnUNg1FBfr4_eRWwD1X1-53" value="" style="shape=partialRectangle;collapsible=0;dropTarget=0;pointerEvents=0;fillColor=none;top=0;left=0;bottom=0;right=0;points=[[0,0.5],[1,0.5]];portConstraint=eastwest;" vertex="1" parent="SnUNg1FBfr4_eRWwD1X1-43">
          <mxGeometry y="100" width="200" height="30" as="geometry" />
        </mxCell>
        <mxCell id="SnUNg1FBfr4_eRWwD1X1-54" value="" style="shape=partialRectangle;connectable=0;fillColor=none;top=0;left=0;bottom=0;right=0;editable=1;overflow=hidden;" vertex="1" parent="SnUNg1FBfr4_eRWwD1X1-53">
          <mxGeometry width="30" height="30" as="geometry" />
        </mxCell>
        <mxCell id="SnUNg1FBfr4_eRWwD1X1-55" value="" style="shape=partialRectangle;connectable=0;fillColor=none;top=0;left=0;bottom=0;right=0;align=left;spacingLeft=6;overflow=hidden;" vertex="1" parent="SnUNg1FBfr4_eRWwD1X1-53">
          <mxGeometry x="30" width="170" height="30" as="geometry" />
        </mxCell>
        <mxCell id="SnUNg1FBfr4_eRWwD1X1-56" value="products" style="shape=table;startSize=30;container=1;collapsible=1;childLayout=tableLayout;fixedRows=1;rowLines=0;fontStyle=1;align=center;resizeLast=1;html=1;" vertex="1" parent="1">
          <mxGeometry x="680" y="40" width="200" height="200" as="geometry" />
        </mxCell>
        <mxCell id="SnUNg1FBfr4_eRWwD1X1-57" value="" style="shape=partialRectangle;collapsible=0;dropTarget=0;pointerEvents=0;fillColor=none;top=0;left=0;bottom=1;right=0;points=[[0,0.5],[1,0.5]];portConstraint=eastwest;" vertex="1" parent="SnUNg1FBfr4_eRWwD1X1-56">
          <mxGeometry y="30" width="200" height="30" as="geometry" />
        </mxCell>
        <mxCell id="SnUNg1FBfr4_eRWwD1X1-58" value="PK" style="shape=partialRectangle;connectable=0;fillColor=none;top=0;left=0;bottom=0;right=0;fontStyle=1;overflow=hidden;" vertex="1" parent="SnUNg1FBfr4_eRWwD1X1-57">
          <mxGeometry width="30" height="30" as="geometry" />
        </mxCell>
        <mxCell id="SnUNg1FBfr4_eRWwD1X1-59" value="id varchar(24) NOT NULL" style="shape=partialRectangle;connectable=0;fillColor=none;top=0;left=0;bottom=0;right=0;align=left;spacingLeft=6;fontStyle=5;overflow=hidden;" vertex="1" parent="SnUNg1FBfr4_eRWwD1X1-57">
          <mxGeometry x="30" width="170" height="30" as="geometry" />
        </mxCell>
        <mxCell id="SnUNg1FBfr4_eRWwD1X1-60" value="" style="shape=partialRectangle;collapsible=0;dropTarget=0;pointerEvents=0;fillColor=none;top=0;left=0;bottom=0;right=0;points=[[0,0.5],[1,0.5]];portConstraint=eastwest;" vertex="1" parent="SnUNg1FBfr4_eRWwD1X1-56">
          <mxGeometry y="60" width="200" height="20" as="geometry" />
        </mxCell>
        <mxCell id="SnUNg1FBfr4_eRWwD1X1-61" value="" style="shape=partialRectangle;connectable=0;fillColor=none;top=0;left=0;bottom=0;right=0;editable=1;overflow=hidden;" vertex="1" parent="SnUNg1FBfr4_eRWwD1X1-60">
          <mxGeometry width="30" height="20" as="geometry" />
        </mxCell>
        <mxCell id="SnUNg1FBfr4_eRWwD1X1-62" value="tenant_id varchar(24)" style="shape=partialRectangle;connectable=0;fillColor=none;top=0;left=0;bottom=0;right=0;align=left;spacingLeft=6;overflow=hidden;" vertex="1" parent="SnUNg1FBfr4_eRWwD1X1-60">
          <mxGeometry x="30" width="170" height="20" as="geometry" />
        </mxCell>
        <mxCell id="SnUNg1FBfr4_eRWwD1X1-63" value="" style="shape=partialRectangle;collapsible=0;dropTarget=0;pointerEvents=0;fillColor=none;top=0;left=0;bottom=0;right=0;points=[[0,0.5],[1,0.5]];portConstraint=eastwest;" vertex="1" parent="SnUNg1FBfr4_eRWwD1X1-56">
          <mxGeometry y="80" width="200" height="20" as="geometry" />
        </mxCell>
        <mxCell id="SnUNg1FBfr4_eRWwD1X1-64" value="" style="shape=partialRectangle;connectable=0;fillColor=none;top=0;left=0;bottom=0;right=0;editable=1;overflow=hidden;" vertex="1" parent="SnUNg1FBfr4_eRWwD1X1-63">
          <mxGeometry width="30" height="20" as="geometry" />
        </mxCell>
        <mxCell id="SnUNg1FBfr4_eRWwD1X1-65" value="product_type_id varchar(24)" style="shape=partialRectangle;connectable=0;fillColor=none;top=0;left=0;bottom=0;right=0;align=left;spacingLeft=6;overflow=hidden;" vertex="1" parent="SnUNg1FBfr4_eRWwD1X1-63">
          <mxGeometry x="30" width="170" height="20" as="geometry" />
        </mxCell>
        <mxCell id="SnUNg1FBfr4_eRWwD1X1-66" value="" style="shape=partialRectangle;collapsible=0;dropTarget=0;pointerEvents=0;fillColor=none;top=0;left=0;bottom=0;right=0;points=[[0,0.5],[1,0.5]];portConstraint=eastwest;" vertex="1" parent="SnUNg1FBfr4_eRWwD1X1-56">
          <mxGeometry y="100" width="200" height="20" as="geometry" />
        </mxCell>
        <mxCell id="SnUNg1FBfr4_eRWwD1X1-67" value="" style="shape=partialRectangle;connectable=0;fillColor=none;top=0;left=0;bottom=0;right=0;editable=1;overflow=hidden;" vertex="1" parent="SnUNg1FBfr4_eRWwD1X1-66">
          <mxGeometry width="30" height="20" as="geometry" />
        </mxCell>
        <mxCell id="SnUNg1FBfr4_eRWwD1X1-68" value="name nvarchar(255)" style="shape=partialRectangle;connectable=0;fillColor=none;top=0;left=0;bottom=0;right=0;align=left;spacingLeft=6;overflow=hidden;" vertex="1" parent="SnUNg1FBfr4_eRWwD1X1-66">
          <mxGeometry x="30" width="170" height="20" as="geometry" />
        </mxCell>
        <mxCell id="SnUNg1FBfr4_eRWwD1X1-149" value="" style="shape=partialRectangle;collapsible=0;dropTarget=0;pointerEvents=0;fillColor=none;top=0;left=0;bottom=0;right=0;points=[[0,0.5],[1,0.5]];portConstraint=eastwest;" vertex="1" parent="SnUNg1FBfr4_eRWwD1X1-56">
          <mxGeometry y="120" width="200" height="20" as="geometry" />
        </mxCell>
        <mxCell id="SnUNg1FBfr4_eRWwD1X1-150" value="" style="shape=partialRectangle;connectable=0;fillColor=none;top=0;left=0;bottom=0;right=0;editable=1;overflow=hidden;" vertex="1" parent="SnUNg1FBfr4_eRWwD1X1-149">
          <mxGeometry width="30" height="20" as="geometry" />
        </mxCell>
        <mxCell id="SnUNg1FBfr4_eRWwD1X1-151" value="standard_price int" style="shape=partialRectangle;connectable=0;fillColor=none;top=0;left=0;bottom=0;right=0;align=left;spacingLeft=6;overflow=hidden;" vertex="1" parent="SnUNg1FBfr4_eRWwD1X1-149">
          <mxGeometry x="30" width="170" height="20" as="geometry" />
        </mxCell>
        <mxCell id="SnUNg1FBfr4_eRWwD1X1-153" value="" style="shape=partialRectangle;collapsible=0;dropTarget=0;pointerEvents=0;fillColor=none;top=0;left=0;bottom=0;right=0;points=[[0,0.5],[1,0.5]];portConstraint=eastwest;" vertex="1" parent="SnUNg1FBfr4_eRWwD1X1-56">
          <mxGeometry y="140" width="200" height="20" as="geometry" />
        </mxCell>
        <mxCell id="SnUNg1FBfr4_eRWwD1X1-154" value="" style="shape=partialRectangle;connectable=0;fillColor=none;top=0;left=0;bottom=0;right=0;editable=1;overflow=hidden;" vertex="1" parent="SnUNg1FBfr4_eRWwD1X1-153">
          <mxGeometry width="30" height="20" as="geometry" />
        </mxCell>
        <mxCell id="SnUNg1FBfr4_eRWwD1X1-155" value="image_url varchar(255)" style="shape=partialRectangle;connectable=0;fillColor=none;top=0;left=0;bottom=0;right=0;align=left;spacingLeft=6;overflow=hidden;" vertex="1" parent="SnUNg1FBfr4_eRWwD1X1-153">
          <mxGeometry x="30" width="170" height="20" as="geometry" />
        </mxCell>
        <mxCell id="SnUNg1FBfr4_eRWwD1X1-157" value="" style="shape=partialRectangle;collapsible=0;dropTarget=0;pointerEvents=0;fillColor=none;top=0;left=0;bottom=0;right=0;points=[[0,0.5],[1,0.5]];portConstraint=eastwest;" vertex="1" parent="SnUNg1FBfr4_eRWwD1X1-56">
          <mxGeometry y="160" width="200" height="20" as="geometry" />
        </mxCell>
        <mxCell id="SnUNg1FBfr4_eRWwD1X1-158" value="" style="shape=partialRectangle;connectable=0;fillColor=none;top=0;left=0;bottom=0;right=0;editable=1;overflow=hidden;" vertex="1" parent="SnUNg1FBfr4_eRWwD1X1-157">
          <mxGeometry width="30" height="20" as="geometry" />
        </mxCell>
        <mxCell id="SnUNg1FBfr4_eRWwD1X1-159" value="image_detail_url varchar(255)" style="shape=partialRectangle;connectable=0;fillColor=none;top=0;left=0;bottom=0;right=0;align=left;spacingLeft=6;overflow=hidden;" vertex="1" parent="SnUNg1FBfr4_eRWwD1X1-157">
          <mxGeometry x="30" width="170" height="20" as="geometry" />
        </mxCell>
        <mxCell id="SnUNg1FBfr4_eRWwD1X1-72" value="product_types" style="shape=table;startSize=30;container=1;collapsible=1;childLayout=tableLayout;fixedRows=1;rowLines=0;fontStyle=1;align=center;resizeLast=1;html=1;" vertex="1" parent="1">
          <mxGeometry x="400" y="40" width="200" height="160" as="geometry" />
        </mxCell>
        <mxCell id="SnUNg1FBfr4_eRWwD1X1-73" value="" style="shape=partialRectangle;collapsible=0;dropTarget=0;pointerEvents=0;fillColor=none;top=0;left=0;bottom=1;right=0;points=[[0,0.5],[1,0.5]];portConstraint=eastwest;" vertex="1" parent="SnUNg1FBfr4_eRWwD1X1-72">
          <mxGeometry y="30" width="200" height="30" as="geometry" />
        </mxCell>
        <mxCell id="SnUNg1FBfr4_eRWwD1X1-74" value="PK" style="shape=partialRectangle;connectable=0;fillColor=none;top=0;left=0;bottom=0;right=0;fontStyle=1;overflow=hidden;" vertex="1" parent="SnUNg1FBfr4_eRWwD1X1-73">
          <mxGeometry width="30" height="30" as="geometry" />
        </mxCell>
        <mxCell id="SnUNg1FBfr4_eRWwD1X1-75" value="id varchar(24) NOT NULL" style="shape=partialRectangle;connectable=0;fillColor=none;top=0;left=0;bottom=0;right=0;align=left;spacingLeft=6;fontStyle=5;overflow=hidden;" vertex="1" parent="SnUNg1FBfr4_eRWwD1X1-73">
          <mxGeometry x="30" width="170" height="30" as="geometry" />
        </mxCell>
        <mxCell id="SnUNg1FBfr4_eRWwD1X1-76" value="" style="shape=partialRectangle;collapsible=0;dropTarget=0;pointerEvents=0;fillColor=none;top=0;left=0;bottom=0;right=0;points=[[0,0.5],[1,0.5]];portConstraint=eastwest;" vertex="1" parent="SnUNg1FBfr4_eRWwD1X1-72">
          <mxGeometry y="60" width="200" height="20" as="geometry" />
        </mxCell>
        <mxCell id="SnUNg1FBfr4_eRWwD1X1-77" value="" style="shape=partialRectangle;connectable=0;fillColor=none;top=0;left=0;bottom=0;right=0;editable=1;overflow=hidden;" vertex="1" parent="SnUNg1FBfr4_eRWwD1X1-76">
          <mxGeometry width="30" height="20" as="geometry" />
        </mxCell>
        <mxCell id="SnUNg1FBfr4_eRWwD1X1-78" value="tenant_id varchar(24)" style="shape=partialRectangle;connectable=0;fillColor=none;top=0;left=0;bottom=0;right=0;align=left;spacingLeft=6;overflow=hidden;" vertex="1" parent="SnUNg1FBfr4_eRWwD1X1-76">
          <mxGeometry x="30" width="170" height="20" as="geometry" />
        </mxCell>
        <mxCell id="SnUNg1FBfr4_eRWwD1X1-79" value="" style="shape=partialRectangle;collapsible=0;dropTarget=0;pointerEvents=0;fillColor=none;top=0;left=0;bottom=0;right=0;points=[[0,0.5],[1,0.5]];portConstraint=eastwest;" vertex="1" parent="SnUNg1FBfr4_eRWwD1X1-72">
          <mxGeometry y="80" width="200" height="20" as="geometry" />
        </mxCell>
        <mxCell id="SnUNg1FBfr4_eRWwD1X1-80" value="" style="shape=partialRectangle;connectable=0;fillColor=none;top=0;left=0;bottom=0;right=0;editable=1;overflow=hidden;" vertex="1" parent="SnUNg1FBfr4_eRWwD1X1-79">
          <mxGeometry width="30" height="20" as="geometry" />
        </mxCell>
        <mxCell id="SnUNg1FBfr4_eRWwD1X1-81" value="name nvarchar(255)&#xa;" style="shape=partialRectangle;connectable=0;fillColor=none;top=0;left=0;bottom=0;right=0;align=left;spacingLeft=6;overflow=hidden;" vertex="1" parent="SnUNg1FBfr4_eRWwD1X1-79">
          <mxGeometry x="30" width="170" height="20" as="geometry" />
        </mxCell>
        <mxCell id="SnUNg1FBfr4_eRWwD1X1-85" value="orders" style="shape=table;startSize=30;container=1;collapsible=1;childLayout=tableLayout;fixedRows=1;rowLines=0;fontStyle=1;align=center;resizeLast=1;html=1;" vertex="1" parent="1">
          <mxGeometry x="390" y="680" width="220" height="200" as="geometry" />
        </mxCell>
        <mxCell id="SnUNg1FBfr4_eRWwD1X1-86" value="" style="shape=partialRectangle;collapsible=0;dropTarget=0;pointerEvents=0;fillColor=none;top=0;left=0;bottom=1;right=0;points=[[0,0.5],[1,0.5]];portConstraint=eastwest;" vertex="1" parent="SnUNg1FBfr4_eRWwD1X1-85">
          <mxGeometry y="30" width="220" height="30" as="geometry" />
        </mxCell>
        <mxCell id="SnUNg1FBfr4_eRWwD1X1-87" value="PK" style="shape=partialRectangle;connectable=0;fillColor=none;top=0;left=0;bottom=0;right=0;fontStyle=1;overflow=hidden;" vertex="1" parent="SnUNg1FBfr4_eRWwD1X1-86">
          <mxGeometry width="30" height="30" as="geometry" />
        </mxCell>
        <mxCell id="SnUNg1FBfr4_eRWwD1X1-88" value="id varchar(24) NOT NULL" style="shape=partialRectangle;connectable=0;fillColor=none;top=0;left=0;bottom=0;right=0;align=left;spacingLeft=6;fontStyle=5;overflow=hidden;" vertex="1" parent="SnUNg1FBfr4_eRWwD1X1-86">
          <mxGeometry x="30" width="190" height="30" as="geometry" />
        </mxCell>
        <mxCell id="SnUNg1FBfr4_eRWwD1X1-89" value="" style="shape=partialRectangle;collapsible=0;dropTarget=0;pointerEvents=0;fillColor=none;top=0;left=0;bottom=0;right=0;points=[[0,0.5],[1,0.5]];portConstraint=eastwest;" vertex="1" parent="SnUNg1FBfr4_eRWwD1X1-85">
          <mxGeometry y="60" width="220" height="20" as="geometry" />
        </mxCell>
        <mxCell id="SnUNg1FBfr4_eRWwD1X1-90" value="" style="shape=partialRectangle;connectable=0;fillColor=none;top=0;left=0;bottom=0;right=0;editable=1;overflow=hidden;" vertex="1" parent="SnUNg1FBfr4_eRWwD1X1-89">
          <mxGeometry width="30" height="20" as="geometry" />
        </mxCell>
        <mxCell id="SnUNg1FBfr4_eRWwD1X1-91" value="tenant_id varchar(24)" style="shape=partialRectangle;connectable=0;fillColor=none;top=0;left=0;bottom=0;right=0;align=left;spacingLeft=6;overflow=hidden;" vertex="1" parent="SnUNg1FBfr4_eRWwD1X1-89">
          <mxGeometry x="30" width="190" height="20" as="geometry" />
        </mxCell>
        <mxCell id="SnUNg1FBfr4_eRWwD1X1-92" value="" style="shape=partialRectangle;collapsible=0;dropTarget=0;pointerEvents=0;fillColor=none;top=0;left=0;bottom=0;right=0;points=[[0,0.5],[1,0.5]];portConstraint=eastwest;" vertex="1" parent="SnUNg1FBfr4_eRWwD1X1-85">
          <mxGeometry y="80" width="220" height="20" as="geometry" />
        </mxCell>
        <mxCell id="SnUNg1FBfr4_eRWwD1X1-93" value="" style="shape=partialRectangle;connectable=0;fillColor=none;top=0;left=0;bottom=0;right=0;editable=1;overflow=hidden;" vertex="1" parent="SnUNg1FBfr4_eRWwD1X1-92">
          <mxGeometry width="30" height="20" as="geometry" />
        </mxCell>
        <mxCell id="SnUNg1FBfr4_eRWwD1X1-94" value="payment_type enum(&#39;0&#39;,&#39;1&#39;)" style="shape=partialRectangle;connectable=0;fillColor=none;top=0;left=0;bottom=0;right=0;align=left;spacingLeft=6;overflow=hidden;" vertex="1" parent="SnUNg1FBfr4_eRWwD1X1-92">
          <mxGeometry x="30" width="190" height="20" as="geometry" />
        </mxCell>
        <mxCell id="SnUNg1FBfr4_eRWwD1X1-95" value="" style="shape=partialRectangle;collapsible=0;dropTarget=0;pointerEvents=0;fillColor=none;top=0;left=0;bottom=0;right=0;points=[[0,0.5],[1,0.5]];portConstraint=eastwest;" vertex="1" parent="SnUNg1FBfr4_eRWwD1X1-85">
          <mxGeometry y="100" width="220" height="20" as="geometry" />
        </mxCell>
        <mxCell id="SnUNg1FBfr4_eRWwD1X1-96" value="" style="shape=partialRectangle;connectable=0;fillColor=none;top=0;left=0;bottom=0;right=0;editable=1;overflow=hidden;" vertex="1" parent="SnUNg1FBfr4_eRWwD1X1-95">
          <mxGeometry width="30" height="20" as="geometry" />
        </mxCell>
        <mxCell id="SnUNg1FBfr4_eRWwD1X1-97" value="isPaid boolean" style="shape=partialRectangle;connectable=0;fillColor=none;top=0;left=0;bottom=0;right=0;align=left;spacingLeft=6;overflow=hidden;" vertex="1" parent="SnUNg1FBfr4_eRWwD1X1-95">
          <mxGeometry x="30" width="190" height="20" as="geometry" />
        </mxCell>
        <mxCell id="SnUNg1FBfr4_eRWwD1X1-161" value="" style="shape=partialRectangle;collapsible=0;dropTarget=0;pointerEvents=0;fillColor=none;top=0;left=0;bottom=0;right=0;points=[[0,0.5],[1,0.5]];portConstraint=eastwest;" vertex="1" parent="SnUNg1FBfr4_eRWwD1X1-85">
          <mxGeometry y="120" width="220" height="20" as="geometry" />
        </mxCell>
        <mxCell id="SnUNg1FBfr4_eRWwD1X1-162" value="" style="shape=partialRectangle;connectable=0;fillColor=none;top=0;left=0;bottom=0;right=0;editable=1;overflow=hidden;" vertex="1" parent="SnUNg1FBfr4_eRWwD1X1-161">
          <mxGeometry width="30" height="20" as="geometry" />
        </mxCell>
        <mxCell id="SnUNg1FBfr4_eRWwD1X1-163" value="amount int" style="shape=partialRectangle;connectable=0;fillColor=none;top=0;left=0;bottom=0;right=0;align=left;spacingLeft=6;overflow=hidden;" vertex="1" parent="SnUNg1FBfr4_eRWwD1X1-161">
          <mxGeometry x="30" width="190" height="20" as="geometry" />
        </mxCell>
        <mxCell id="SnUNg1FBfr4_eRWwD1X1-194" value="" style="shape=partialRectangle;collapsible=0;dropTarget=0;pointerEvents=0;fillColor=none;top=0;left=0;bottom=0;right=0;points=[[0,0.5],[1,0.5]];portConstraint=eastwest;" vertex="1" parent="SnUNg1FBfr4_eRWwD1X1-85">
          <mxGeometry y="140" width="220" height="30" as="geometry" />
        </mxCell>
        <mxCell id="SnUNg1FBfr4_eRWwD1X1-195" value="" style="shape=partialRectangle;connectable=0;fillColor=none;top=0;left=0;bottom=0;right=0;editable=1;overflow=hidden;" vertex="1" parent="SnUNg1FBfr4_eRWwD1X1-194">
          <mxGeometry width="30" height="30" as="geometry" />
        </mxCell>
        <mxCell id="SnUNg1FBfr4_eRWwD1X1-196" value="machine_product_mapping_detail_id &#xa;- varchar(24)" style="shape=partialRectangle;connectable=0;fillColor=none;top=0;left=0;bottom=0;right=0;align=left;spacingLeft=6;overflow=hidden;" vertex="1" parent="SnUNg1FBfr4_eRWwD1X1-194">
          <mxGeometry x="30" width="190" height="30" as="geometry" />
        </mxCell>
        <mxCell id="SnUNg1FBfr4_eRWwD1X1-169" value="" style="fontSize=12;html=1;endArrow=ERoneToMany;exitX=0.5;exitY=0;exitDx=0;exitDy=0;entryX=0.5;entryY=1;entryDx=0;entryDy=0;" edge="1" parent="1" source="C-vyLk0tnHw3VtMMgP7b-23" target="SnUNg1FBfr4_eRWwD1X1-43">
          <mxGeometry width="100" height="100" relative="1" as="geometry">
            <mxPoint x="220" y="318" as="sourcePoint" />
            <mxPoint x="220" y="240" as="targetPoint" />
          </mxGeometry>
        </mxCell>
        <mxCell id="SnUNg1FBfr4_eRWwD1X1-170" value="" style="edgeStyle=entityRelationEdgeStyle;fontSize=12;html=1;endArrow=none;startArrow=ERoneToMany;startFill=0;endFill=0;entryX=-0.005;entryY=1.015;entryDx=0;entryDy=0;entryPerimeter=0;exitX=0.997;exitY=0.992;exitDx=0;exitDy=0;exitPerimeter=0;" edge="1" parent="1" source="SnUNg1FBfr4_eRWwD1X1-3" target="SnUNg1FBfr4_eRWwD1X1-21">
          <mxGeometry width="100" height="100" relative="1" as="geometry">
            <mxPoint x="322" y="405" as="sourcePoint" />
            <mxPoint x="399" y="410" as="targetPoint" />
          </mxGeometry>
        </mxCell>
        <mxCell id="SnUNg1FBfr4_eRWwD1X1-171" value="" style="fontSize=12;html=1;endArrow=ERoneToMany;exitX=0.5;exitY=1;exitDx=0;exitDy=0;entryX=0.5;entryY=0;entryDx=0;entryDy=0;" edge="1" parent="1" source="C-vyLk0tnHw3VtMMgP7b-23" target="SnUNg1FBfr4_eRWwD1X1-30">
          <mxGeometry width="100" height="100" relative="1" as="geometry">
            <mxPoint x="320" y="410" as="sourcePoint" />
            <mxPoint x="610" y="160" as="targetPoint" />
          </mxGeometry>
        </mxCell>
        <mxCell id="SnUNg1FBfr4_eRWwD1X1-173" value="" style="edgeStyle=orthogonalEdgeStyle;fontSize=12;html=1;endArrow=none;entryX=0.5;entryY=0;entryDx=0;entryDy=0;endFill=0;startArrow=ERoneToMany;startFill=0;" edge="1" parent="1" target="SnUNg1FBfr4_eRWwD1X1-17">
          <mxGeometry width="100" height="100" relative="1" as="geometry">
            <mxPoint x="500" y="200" as="sourcePoint" />
            <mxPoint x="601" y="378" as="targetPoint" />
          </mxGeometry>
        </mxCell>
        <mxCell id="SnUNg1FBfr4_eRWwD1X1-175" value="machine_product_mappings" style="shape=table;startSize=30;container=1;collapsible=1;childLayout=tableLayout;fixedRows=1;rowLines=0;fontStyle=1;align=center;resizeLast=1;fillColor=none;" vertex="1" parent="1">
          <mxGeometry x="680" y="360" width="200" height="200" as="geometry" />
        </mxCell>
        <mxCell id="SnUNg1FBfr4_eRWwD1X1-176" value="" style="shape=partialRectangle;collapsible=0;dropTarget=0;pointerEvents=0;fillColor=none;top=0;left=0;bottom=1;right=0;points=[[0,0.5],[1,0.5]];portConstraint=eastwest;" vertex="1" parent="SnUNg1FBfr4_eRWwD1X1-175">
          <mxGeometry y="30" width="200" height="30" as="geometry" />
        </mxCell>
        <mxCell id="SnUNg1FBfr4_eRWwD1X1-177" value="PK" style="shape=partialRectangle;connectable=0;fillColor=none;top=0;left=0;bottom=0;right=0;fontStyle=1;overflow=hidden;" vertex="1" parent="SnUNg1FBfr4_eRWwD1X1-176">
          <mxGeometry width="30" height="30" as="geometry" />
        </mxCell>
        <mxCell id="SnUNg1FBfr4_eRWwD1X1-178" value="id varchar(24) NOT NULL" style="shape=partialRectangle;connectable=0;fillColor=none;top=0;left=0;bottom=0;right=0;align=left;spacingLeft=6;fontStyle=5;overflow=hidden;" vertex="1" parent="SnUNg1FBfr4_eRWwD1X1-176">
          <mxGeometry x="30" width="170" height="30" as="geometry" />
        </mxCell>
        <mxCell id="SnUNg1FBfr4_eRWwD1X1-185" value="" style="shape=partialRectangle;collapsible=0;dropTarget=0;pointerEvents=0;fillColor=none;top=0;left=0;bottom=0;right=0;points=[[0,0.5],[1,0.5]];portConstraint=eastwest;" vertex="1" parent="SnUNg1FBfr4_eRWwD1X1-175">
          <mxGeometry y="60" width="200" height="30" as="geometry" />
        </mxCell>
        <mxCell id="SnUNg1FBfr4_eRWwD1X1-186" value="" style="shape=partialRectangle;connectable=0;fillColor=none;top=0;left=0;bottom=0;right=0;editable=1;overflow=hidden;" vertex="1" parent="SnUNg1FBfr4_eRWwD1X1-185">
          <mxGeometry width="30" height="30" as="geometry" />
        </mxCell>
        <mxCell id="SnUNg1FBfr4_eRWwD1X1-187" value="tenant_id varchar(24)" style="shape=partialRectangle;connectable=0;fillColor=none;top=0;left=0;bottom=0;right=0;align=left;spacingLeft=6;overflow=hidden;" vertex="1" parent="SnUNg1FBfr4_eRWwD1X1-185">
          <mxGeometry x="30" width="170" height="30" as="geometry" />
        </mxCell>
        <mxCell id="SnUNg1FBfr4_eRWwD1X1-179" value="" style="shape=partialRectangle;collapsible=0;dropTarget=0;pointerEvents=0;fillColor=none;top=0;left=0;bottom=0;right=0;points=[[0,0.5],[1,0.5]];portConstraint=eastwest;" vertex="1" parent="SnUNg1FBfr4_eRWwD1X1-175">
          <mxGeometry y="90" width="200" height="20" as="geometry" />
        </mxCell>
        <mxCell id="SnUNg1FBfr4_eRWwD1X1-180" value="" style="shape=partialRectangle;connectable=0;fillColor=none;top=0;left=0;bottom=0;right=0;editable=1;overflow=hidden;" vertex="1" parent="SnUNg1FBfr4_eRWwD1X1-179">
          <mxGeometry width="30" height="20" as="geometry" />
        </mxCell>
        <mxCell id="SnUNg1FBfr4_eRWwD1X1-181" value="machine_id varchar(24)" style="shape=partialRectangle;connectable=0;fillColor=none;top=0;left=0;bottom=0;right=0;align=left;spacingLeft=6;overflow=hidden;" vertex="1" parent="SnUNg1FBfr4_eRWwD1X1-179">
          <mxGeometry x="30" width="170" height="20" as="geometry" />
        </mxCell>
        <mxCell id="SnUNg1FBfr4_eRWwD1X1-182" value="" style="shape=partialRectangle;collapsible=0;dropTarget=0;pointerEvents=0;fillColor=none;top=0;left=0;bottom=0;right=0;points=[[0,0.5],[1,0.5]];portConstraint=eastwest;" vertex="1" parent="SnUNg1FBfr4_eRWwD1X1-175">
          <mxGeometry y="110" width="200" height="20" as="geometry" />
        </mxCell>
        <mxCell id="SnUNg1FBfr4_eRWwD1X1-183" value="" style="shape=partialRectangle;connectable=0;fillColor=none;top=0;left=0;bottom=0;right=0;editable=1;overflow=hidden;" vertex="1" parent="SnUNg1FBfr4_eRWwD1X1-182">
          <mxGeometry width="30" height="20" as="geometry" />
        </mxCell>
        <mxCell id="SnUNg1FBfr4_eRWwD1X1-184" value="product_id varchar(24)" style="shape=partialRectangle;connectable=0;fillColor=none;top=0;left=0;bottom=0;right=0;align=left;spacingLeft=6;overflow=hidden;" vertex="1" parent="SnUNg1FBfr4_eRWwD1X1-182">
          <mxGeometry x="30" width="170" height="20" as="geometry" />
        </mxCell>
        <mxCell id="SnUNg1FBfr4_eRWwD1X1-223" value="" style="shape=partialRectangle;collapsible=0;dropTarget=0;pointerEvents=0;fillColor=none;top=0;left=0;bottom=0;right=0;points=[[0,0.5],[1,0.5]];portConstraint=eastwest;" vertex="1" parent="SnUNg1FBfr4_eRWwD1X1-175">
          <mxGeometry y="130" width="200" height="30" as="geometry" />
        </mxCell>
        <mxCell id="SnUNg1FBfr4_eRWwD1X1-224" value="" style="shape=partialRectangle;connectable=0;fillColor=none;top=0;left=0;bottom=0;right=0;editable=1;overflow=hidden;" vertex="1" parent="SnUNg1FBfr4_eRWwD1X1-223">
          <mxGeometry width="30" height="30" as="geometry" />
        </mxCell>
        <mxCell id="SnUNg1FBfr4_eRWwD1X1-225" value="" style="shape=partialRectangle;connectable=0;fillColor=none;top=0;left=0;bottom=0;right=0;align=left;spacingLeft=6;overflow=hidden;" vertex="1" parent="SnUNg1FBfr4_eRWwD1X1-223">
          <mxGeometry x="30" width="170" height="30" as="geometry" />
        </mxCell>
        <mxCell id="SnUNg1FBfr4_eRWwD1X1-189" value="" style="fontSize=12;html=1;endArrow=ERmany;startArrow=ERmany;exitX=0.75;exitY=0;exitDx=0;exitDy=0;edgeStyle=orthogonalEdgeStyle;" edge="1" parent="1" source="C-vyLk0tnHw3VtMMgP7b-23">
          <mxGeometry width="100" height="100" relative="1" as="geometry">
            <mxPoint x="430" y="470" as="sourcePoint" />
            <mxPoint x="730" y="360" as="targetPoint" />
            <Array as="points">
              <mxPoint x="270" y="320" />
              <mxPoint x="730" y="320" />
            </Array>
          </mxGeometry>
        </mxCell>
        <mxCell id="SnUNg1FBfr4_eRWwD1X1-190" value="" style="fontSize=12;html=1;endArrow=ERmany;startArrow=ERmany;" edge="1" parent="1">
          <mxGeometry width="100" height="100" relative="1" as="geometry">
            <mxPoint x="780" y="359" as="sourcePoint" />
            <mxPoint x="780" y="240" as="targetPoint" />
          </mxGeometry>
        </mxCell>
        <mxCell id="SnUNg1FBfr4_eRWwD1X1-197" value="machine_product_mapping_details" style="shape=table;startSize=30;container=1;collapsible=1;childLayout=tableLayout;fixedRows=1;rowLines=0;fontStyle=1;align=center;resizeLast=1;fillColor=none;" vertex="1" parent="1">
          <mxGeometry x="660" y="680" width="240" height="280" as="geometry" />
        </mxCell>
        <mxCell id="SnUNg1FBfr4_eRWwD1X1-198" value="" style="shape=partialRectangle;collapsible=0;dropTarget=0;pointerEvents=0;fillColor=none;top=0;left=0;bottom=1;right=0;points=[[0,0.5],[1,0.5]];portConstraint=eastwest;" vertex="1" parent="SnUNg1FBfr4_eRWwD1X1-197">
          <mxGeometry y="30" width="240" height="30" as="geometry" />
        </mxCell>
        <mxCell id="SnUNg1FBfr4_eRWwD1X1-199" value="PK" style="shape=partialRectangle;connectable=0;fillColor=none;top=0;left=0;bottom=0;right=0;fontStyle=1;overflow=hidden;" vertex="1" parent="SnUNg1FBfr4_eRWwD1X1-198">
          <mxGeometry width="30" height="30" as="geometry" />
        </mxCell>
        <mxCell id="SnUNg1FBfr4_eRWwD1X1-200" value="id varchar(24) NOT NULL" style="shape=partialRectangle;connectable=0;fillColor=none;top=0;left=0;bottom=0;right=0;align=left;spacingLeft=6;fontStyle=5;overflow=hidden;" vertex="1" parent="SnUNg1FBfr4_eRWwD1X1-198">
          <mxGeometry x="30" width="210" height="30" as="geometry" />
        </mxCell>
        <mxCell id="SnUNg1FBfr4_eRWwD1X1-201" value="" style="shape=partialRectangle;collapsible=0;dropTarget=0;pointerEvents=0;fillColor=none;top=0;left=0;bottom=0;right=0;points=[[0,0.5],[1,0.5]];portConstraint=eastwest;" vertex="1" parent="SnUNg1FBfr4_eRWwD1X1-197">
          <mxGeometry y="60" width="240" height="20" as="geometry" />
        </mxCell>
        <mxCell id="SnUNg1FBfr4_eRWwD1X1-202" value="" style="shape=partialRectangle;connectable=0;fillColor=none;top=0;left=0;bottom=0;right=0;editable=1;overflow=hidden;" vertex="1" parent="SnUNg1FBfr4_eRWwD1X1-201">
          <mxGeometry width="30" height="20" as="geometry" />
        </mxCell>
        <mxCell id="SnUNg1FBfr4_eRWwD1X1-203" value="machine_product_mapping_id varchar(24)" style="shape=partialRectangle;connectable=0;fillColor=none;top=0;left=0;bottom=0;right=0;align=left;spacingLeft=6;overflow=hidden;" vertex="1" parent="SnUNg1FBfr4_eRWwD1X1-201">
          <mxGeometry x="30" width="210" height="20" as="geometry" />
        </mxCell>
        <mxCell id="SnUNg1FBfr4_eRWwD1X1-370" value="" style="shape=partialRectangle;collapsible=0;dropTarget=0;pointerEvents=0;fillColor=none;top=0;left=0;bottom=0;right=0;points=[[0,0.5],[1,0.5]];portConstraint=eastwest;" vertex="1" parent="SnUNg1FBfr4_eRWwD1X1-197">
          <mxGeometry y="80" width="240" height="20" as="geometry" />
        </mxCell>
        <mxCell id="SnUNg1FBfr4_eRWwD1X1-371" value="" style="shape=partialRectangle;connectable=0;fillColor=none;top=0;left=0;bottom=0;right=0;editable=1;overflow=hidden;" vertex="1" parent="SnUNg1FBfr4_eRWwD1X1-370">
          <mxGeometry width="30" height="20" as="geometry" />
        </mxCell>
        <mxCell id="SnUNg1FBfr4_eRWwD1X1-372" value="product_id varchar(24)" style="shape=partialRectangle;connectable=0;fillColor=none;top=0;left=0;bottom=0;right=0;align=left;spacingLeft=6;overflow=hidden;" vertex="1" parent="SnUNg1FBfr4_eRWwD1X1-370">
          <mxGeometry x="30" width="210" height="20" as="geometry" />
        </mxCell>
        <mxCell id="SnUNg1FBfr4_eRWwD1X1-204" value="" style="shape=partialRectangle;collapsible=0;dropTarget=0;pointerEvents=0;fillColor=none;top=0;left=0;bottom=0;right=0;points=[[0,0.5],[1,0.5]];portConstraint=eastwest;" vertex="1" parent="SnUNg1FBfr4_eRWwD1X1-197">
          <mxGeometry y="100" width="240" height="20" as="geometry" />
        </mxCell>
        <mxCell id="SnUNg1FBfr4_eRWwD1X1-205" value="" style="shape=partialRectangle;connectable=0;fillColor=none;top=0;left=0;bottom=0;right=0;editable=1;overflow=hidden;" vertex="1" parent="SnUNg1FBfr4_eRWwD1X1-204">
          <mxGeometry width="30" height="20" as="geometry" />
        </mxCell>
        <mxCell id="SnUNg1FBfr4_eRWwD1X1-206" value="tenant_id varchar(24)" style="shape=partialRectangle;connectable=0;fillColor=none;top=0;left=0;bottom=0;right=0;align=left;spacingLeft=6;overflow=hidden;" vertex="1" parent="SnUNg1FBfr4_eRWwD1X1-204">
          <mxGeometry x="30" width="210" height="20" as="geometry" />
        </mxCell>
        <mxCell id="SnUNg1FBfr4_eRWwD1X1-207" value="" style="shape=partialRectangle;collapsible=0;dropTarget=0;pointerEvents=0;fillColor=none;top=0;left=0;bottom=0;right=0;points=[[0,0.5],[1,0.5]];portConstraint=eastwest;" vertex="1" parent="SnUNg1FBfr4_eRWwD1X1-197">
          <mxGeometry y="120" width="240" height="20" as="geometry" />
        </mxCell>
        <mxCell id="SnUNg1FBfr4_eRWwD1X1-208" value="" style="shape=partialRectangle;connectable=0;fillColor=none;top=0;left=0;bottom=0;right=0;editable=1;overflow=hidden;" vertex="1" parent="SnUNg1FBfr4_eRWwD1X1-207">
          <mxGeometry width="30" height="20" as="geometry" />
        </mxCell>
        <mxCell id="SnUNg1FBfr4_eRWwD1X1-209" value="slot_no int" style="shape=partialRectangle;connectable=0;fillColor=none;top=0;left=0;bottom=0;right=0;align=left;spacingLeft=6;overflow=hidden;" vertex="1" parent="SnUNg1FBfr4_eRWwD1X1-207">
          <mxGeometry x="30" width="210" height="20" as="geometry" />
        </mxCell>
        <mxCell id="SnUNg1FBfr4_eRWwD1X1-211" value="" style="shape=partialRectangle;collapsible=0;dropTarget=0;pointerEvents=0;fillColor=none;top=0;left=0;bottom=0;right=0;points=[[0,0.5],[1,0.5]];portConstraint=eastwest;" vertex="1" parent="SnUNg1FBfr4_eRWwD1X1-197">
          <mxGeometry y="140" width="240" height="20" as="geometry" />
        </mxCell>
        <mxCell id="SnUNg1FBfr4_eRWwD1X1-212" value="" style="shape=partialRectangle;connectable=0;fillColor=none;top=0;left=0;bottom=0;right=0;editable=1;overflow=hidden;" vertex="1" parent="SnUNg1FBfr4_eRWwD1X1-211">
          <mxGeometry width="30" height="20" as="geometry" />
        </mxCell>
        <mxCell id="SnUNg1FBfr4_eRWwD1X1-213" value="slot_number varchar(2)" style="shape=partialRectangle;connectable=0;fillColor=none;top=0;left=0;bottom=0;right=0;align=left;spacingLeft=6;overflow=hidden;" vertex="1" parent="SnUNg1FBfr4_eRWwD1X1-211">
          <mxGeometry x="30" width="210" height="20" as="geometry" />
        </mxCell>
        <mxCell id="SnUNg1FBfr4_eRWwD1X1-215" value="" style="shape=partialRectangle;collapsible=0;dropTarget=0;pointerEvents=0;fillColor=none;top=0;left=0;bottom=0;right=0;points=[[0,0.5],[1,0.5]];portConstraint=eastwest;" vertex="1" parent="SnUNg1FBfr4_eRWwD1X1-197">
          <mxGeometry y="160" width="240" height="20" as="geometry" />
        </mxCell>
        <mxCell id="SnUNg1FBfr4_eRWwD1X1-216" value="" style="shape=partialRectangle;connectable=0;fillColor=none;top=0;left=0;bottom=0;right=0;editable=1;overflow=hidden;" vertex="1" parent="SnUNg1FBfr4_eRWwD1X1-215">
          <mxGeometry width="30" height="20" as="geometry" />
        </mxCell>
        <mxCell id="SnUNg1FBfr4_eRWwD1X1-217" value="keynum int" style="shape=partialRectangle;connectable=0;fillColor=none;top=0;left=0;bottom=0;right=0;align=left;spacingLeft=6;overflow=hidden;" vertex="1" parent="SnUNg1FBfr4_eRWwD1X1-215">
          <mxGeometry x="30" width="210" height="20" as="geometry" />
        </mxCell>
        <mxCell id="SnUNg1FBfr4_eRWwD1X1-263" value="" style="shape=partialRectangle;collapsible=0;dropTarget=0;pointerEvents=0;fillColor=none;top=0;left=0;bottom=0;right=0;points=[[0,0.5],[1,0.5]];portConstraint=eastwest;" vertex="1" parent="SnUNg1FBfr4_eRWwD1X1-197">
          <mxGeometry y="180" width="240" height="20" as="geometry" />
        </mxCell>
        <mxCell id="SnUNg1FBfr4_eRWwD1X1-264" value="" style="shape=partialRectangle;connectable=0;fillColor=none;top=0;left=0;bottom=0;right=0;editable=1;overflow=hidden;" vertex="1" parent="SnUNg1FBfr4_eRWwD1X1-263">
          <mxGeometry width="30" height="20" as="geometry" />
        </mxCell>
        <mxCell id="SnUNg1FBfr4_eRWwD1X1-265" value="quantity int" style="shape=partialRectangle;connectable=0;fillColor=none;top=0;left=0;bottom=0;right=0;align=left;spacingLeft=6;overflow=hidden;" vertex="1" parent="SnUNg1FBfr4_eRWwD1X1-263">
          <mxGeometry x="30" width="210" height="20" as="geometry" />
        </mxCell>
        <mxCell id="SnUNg1FBfr4_eRWwD1X1-267" value="" style="shape=partialRectangle;collapsible=0;dropTarget=0;pointerEvents=0;fillColor=none;top=0;left=0;bottom=0;right=0;points=[[0,0.5],[1,0.5]];portConstraint=eastwest;" vertex="1" parent="SnUNg1FBfr4_eRWwD1X1-197">
          <mxGeometry y="200" width="240" height="20" as="geometry" />
        </mxCell>
        <mxCell id="SnUNg1FBfr4_eRWwD1X1-268" value="" style="shape=partialRectangle;connectable=0;fillColor=none;top=0;left=0;bottom=0;right=0;editable=1;overflow=hidden;" vertex="1" parent="SnUNg1FBfr4_eRWwD1X1-267">
          <mxGeometry width="30" height="20" as="geometry" />
        </mxCell>
        <mxCell id="SnUNg1FBfr4_eRWwD1X1-269" value="stock int" style="shape=partialRectangle;connectable=0;fillColor=none;top=0;left=0;bottom=0;right=0;align=left;spacingLeft=6;overflow=hidden;" vertex="1" parent="SnUNg1FBfr4_eRWwD1X1-267">
          <mxGeometry x="30" width="210" height="20" as="geometry" />
        </mxCell>
        <mxCell id="SnUNg1FBfr4_eRWwD1X1-271" value="" style="shape=partialRectangle;collapsible=0;dropTarget=0;pointerEvents=0;fillColor=none;top=0;left=0;bottom=0;right=0;points=[[0,0.5],[1,0.5]];portConstraint=eastwest;" vertex="1" parent="SnUNg1FBfr4_eRWwD1X1-197">
          <mxGeometry y="220" width="240" height="20" as="geometry" />
        </mxCell>
        <mxCell id="SnUNg1FBfr4_eRWwD1X1-272" value="" style="shape=partialRectangle;connectable=0;fillColor=none;top=0;left=0;bottom=0;right=0;editable=1;overflow=hidden;" vertex="1" parent="SnUNg1FBfr4_eRWwD1X1-271">
          <mxGeometry width="30" height="20" as="geometry" />
        </mxCell>
        <mxCell id="SnUNg1FBfr4_eRWwD1X1-273" value="price int" style="shape=partialRectangle;connectable=0;fillColor=none;top=0;left=0;bottom=0;right=0;align=left;spacingLeft=6;overflow=hidden;" vertex="1" parent="SnUNg1FBfr4_eRWwD1X1-271">
          <mxGeometry x="30" width="210" height="20" as="geometry" />
        </mxCell>
        <mxCell id="SnUNg1FBfr4_eRWwD1X1-275" value="" style="shape=partialRectangle;collapsible=0;dropTarget=0;pointerEvents=0;fillColor=none;top=0;left=0;bottom=0;right=0;points=[[0,0.5],[1,0.5]];portConstraint=eastwest;" vertex="1" parent="SnUNg1FBfr4_eRWwD1X1-197">
          <mxGeometry y="240" width="240" height="20" as="geometry" />
        </mxCell>
        <mxCell id="SnUNg1FBfr4_eRWwD1X1-276" value="" style="shape=partialRectangle;connectable=0;fillColor=none;top=0;left=0;bottom=0;right=0;editable=1;overflow=hidden;" vertex="1" parent="SnUNg1FBfr4_eRWwD1X1-275">
          <mxGeometry width="30" height="20" as="geometry" />
        </mxCell>
        <mxCell id="SnUNg1FBfr4_eRWwD1X1-277" value="pickup_code varchar(8)" style="shape=partialRectangle;connectable=0;fillColor=none;top=0;left=0;bottom=0;right=0;align=left;spacingLeft=6;overflow=hidden;" vertex="1" parent="SnUNg1FBfr4_eRWwD1X1-275">
          <mxGeometry x="30" width="210" height="20" as="geometry" />
        </mxCell>
        <mxCell id="SnUNg1FBfr4_eRWwD1X1-279" value="" style="shape=partialRectangle;collapsible=0;dropTarget=0;pointerEvents=0;fillColor=none;top=0;left=0;bottom=0;right=0;points=[[0,0.5],[1,0.5]];portConstraint=eastwest;" vertex="1" parent="SnUNg1FBfr4_eRWwD1X1-197">
          <mxGeometry y="260" width="240" height="20" as="geometry" />
        </mxCell>
        <mxCell id="SnUNg1FBfr4_eRWwD1X1-280" value="" style="shape=partialRectangle;connectable=0;fillColor=none;top=0;left=0;bottom=0;right=0;editable=1;overflow=hidden;" vertex="1" parent="SnUNg1FBfr4_eRWwD1X1-279">
          <mxGeometry width="30" height="20" as="geometry" />
        </mxCell>
        <mxCell id="SnUNg1FBfr4_eRWwD1X1-281" value="is_picked_up bit" style="shape=partialRectangle;connectable=0;fillColor=none;top=0;left=0;bottom=0;right=0;align=left;spacingLeft=6;overflow=hidden;" vertex="1" parent="SnUNg1FBfr4_eRWwD1X1-279">
          <mxGeometry x="30" width="210" height="20" as="geometry" />
        </mxCell>
        <mxCell id="SnUNg1FBfr4_eRWwD1X1-219" value="" style="fontSize=12;html=1;endArrow=ERoneToMany;exitX=0.5;exitY=1;exitDx=0;exitDy=0;entryX=0.5;entryY=0;entryDx=0;entryDy=0;" edge="1" parent="1" source="SnUNg1FBfr4_eRWwD1X1-175" target="SnUNg1FBfr4_eRWwD1X1-197">
          <mxGeometry width="100" height="100" relative="1" as="geometry">
            <mxPoint x="440" y="490" as="sourcePoint" />
            <mxPoint x="790" y="600" as="targetPoint" />
          </mxGeometry>
        </mxCell>
        <mxCell id="SnUNg1FBfr4_eRWwD1X1-221" value="" style="fontSize=12;html=1;endArrow=ERoneToMany;entryX=0.5;entryY=0;entryDx=0;entryDy=0;exitX=0.5;exitY=1;exitDx=0;exitDy=0;" edge="1" parent="1" source="SnUNg1FBfr4_eRWwD1X1-17" target="SnUNg1FBfr4_eRWwD1X1-85">
          <mxGeometry width="100" height="100" relative="1" as="geometry">
            <mxPoint x="503" y="520" as="sourcePoint" />
            <mxPoint x="560" y="530" as="targetPoint" />
          </mxGeometry>
        </mxCell>
        <mxCell id="SnUNg1FBfr4_eRWwD1X1-226" value="" style="edgeStyle=entityRelationEdgeStyle;fontSize=12;html=1;endArrow=ERoneToMany;exitX=1.003;exitY=1.01;exitDx=0;exitDy=0;entryX=0.001;entryY=0.673;entryDx=0;entryDy=0;exitPerimeter=0;entryPerimeter=0;" edge="1" parent="1" source="SnUNg1FBfr4_eRWwD1X1-21" target="SnUNg1FBfr4_eRWwD1X1-185">
          <mxGeometry width="100" height="100" relative="1" as="geometry">
            <mxPoint x="602" y="410" as="sourcePoint" />
            <mxPoint x="679" y="430" as="targetPoint" />
          </mxGeometry>
        </mxCell>
        <mxCell id="SnUNg1FBfr4_eRWwD1X1-227" value="" style="edgeStyle=entityRelationEdgeStyle;fontSize=12;html=1;endArrow=none;startArrow=ERmany;exitX=1;exitY=0.5;exitDx=0;exitDy=0;entryX=0;entryY=0.5;entryDx=0;entryDy=0;endFill=0;" edge="1" parent="1" source="SnUNg1FBfr4_eRWwD1X1-161" target="SnUNg1FBfr4_eRWwD1X1-207">
          <mxGeometry width="100" height="100" relative="1" as="geometry">
            <mxPoint x="610" y="840" as="sourcePoint" />
            <mxPoint x="710" y="740" as="targetPoint" />
          </mxGeometry>
        </mxCell>
        <mxCell id="SnUNg1FBfr4_eRWwD1X1-228" value="sample_product_mappings" style="shape=table;startSize=30;container=1;collapsible=1;childLayout=tableLayout;fixedRows=1;rowLines=0;fontStyle=1;align=center;resizeLast=1;fillColor=none;" vertex="1" parent="1">
          <mxGeometry x="980" y="360" width="200" height="160" as="geometry" />
        </mxCell>
        <mxCell id="SnUNg1FBfr4_eRWwD1X1-229" value="" style="shape=partialRectangle;collapsible=0;dropTarget=0;pointerEvents=0;fillColor=none;top=0;left=0;bottom=1;right=0;points=[[0,0.5],[1,0.5]];portConstraint=eastwest;" vertex="1" parent="SnUNg1FBfr4_eRWwD1X1-228">
          <mxGeometry y="30" width="200" height="30" as="geometry" />
        </mxCell>
        <mxCell id="SnUNg1FBfr4_eRWwD1X1-230" value="PK" style="shape=partialRectangle;connectable=0;fillColor=none;top=0;left=0;bottom=0;right=0;fontStyle=1;overflow=hidden;" vertex="1" parent="SnUNg1FBfr4_eRWwD1X1-229">
          <mxGeometry width="30" height="30" as="geometry" />
        </mxCell>
        <mxCell id="SnUNg1FBfr4_eRWwD1X1-231" value="id varchar(24) NOT NULL" style="shape=partialRectangle;connectable=0;fillColor=none;top=0;left=0;bottom=0;right=0;align=left;spacingLeft=6;fontStyle=5;overflow=hidden;" vertex="1" parent="SnUNg1FBfr4_eRWwD1X1-229">
          <mxGeometry x="30" width="170" height="30" as="geometry" />
        </mxCell>
        <mxCell id="SnUNg1FBfr4_eRWwD1X1-232" value="" style="shape=partialRectangle;collapsible=0;dropTarget=0;pointerEvents=0;fillColor=none;top=0;left=0;bottom=0;right=0;points=[[0,0.5],[1,0.5]];portConstraint=eastwest;" vertex="1" parent="SnUNg1FBfr4_eRWwD1X1-228">
          <mxGeometry y="60" width="200" height="20" as="geometry" />
        </mxCell>
        <mxCell id="SnUNg1FBfr4_eRWwD1X1-233" value="" style="shape=partialRectangle;connectable=0;fillColor=none;top=0;left=0;bottom=0;right=0;editable=1;overflow=hidden;" vertex="1" parent="SnUNg1FBfr4_eRWwD1X1-232">
          <mxGeometry width="30" height="20" as="geometry" />
        </mxCell>
        <mxCell id="SnUNg1FBfr4_eRWwD1X1-234" value="tenant_id varchar(24)" style="shape=partialRectangle;connectable=0;fillColor=none;top=0;left=0;bottom=0;right=0;align=left;spacingLeft=6;overflow=hidden;" vertex="1" parent="SnUNg1FBfr4_eRWwD1X1-232">
          <mxGeometry x="30" width="170" height="20" as="geometry" />
        </mxCell>
        <mxCell id="SnUNg1FBfr4_eRWwD1X1-235" value="" style="shape=partialRectangle;collapsible=0;dropTarget=0;pointerEvents=0;fillColor=none;top=0;left=0;bottom=0;right=0;points=[[0,0.5],[1,0.5]];portConstraint=eastwest;" vertex="1" parent="SnUNg1FBfr4_eRWwD1X1-228">
          <mxGeometry y="80" width="200" height="20" as="geometry" />
        </mxCell>
        <mxCell id="SnUNg1FBfr4_eRWwD1X1-236" value="" style="shape=partialRectangle;connectable=0;fillColor=none;top=0;left=0;bottom=0;right=0;editable=1;overflow=hidden;" vertex="1" parent="SnUNg1FBfr4_eRWwD1X1-235">
          <mxGeometry width="30" height="20" as="geometry" />
        </mxCell>
        <mxCell id="SnUNg1FBfr4_eRWwD1X1-237" value="machine_model_id varchar(24)" style="shape=partialRectangle;connectable=0;fillColor=none;top=0;left=0;bottom=0;right=0;align=left;spacingLeft=6;overflow=hidden;" vertex="1" parent="SnUNg1FBfr4_eRWwD1X1-235">
          <mxGeometry x="30" width="170" height="20" as="geometry" />
        </mxCell>
        <mxCell id="SnUNg1FBfr4_eRWwD1X1-238" value="" style="shape=partialRectangle;collapsible=0;dropTarget=0;pointerEvents=0;fillColor=none;top=0;left=0;bottom=0;right=0;points=[[0,0.5],[1,0.5]];portConstraint=eastwest;" vertex="1" parent="SnUNg1FBfr4_eRWwD1X1-228">
          <mxGeometry y="100" width="200" height="20" as="geometry" />
        </mxCell>
        <mxCell id="SnUNg1FBfr4_eRWwD1X1-239" value="" style="shape=partialRectangle;connectable=0;fillColor=none;top=0;left=0;bottom=0;right=0;editable=1;overflow=hidden;" vertex="1" parent="SnUNg1FBfr4_eRWwD1X1-238">
          <mxGeometry width="30" height="20" as="geometry" />
        </mxCell>
        <mxCell id="SnUNg1FBfr4_eRWwD1X1-240" value="name nvarchar(255)" style="shape=partialRectangle;connectable=0;fillColor=none;top=0;left=0;bottom=0;right=0;align=left;spacingLeft=6;overflow=hidden;" vertex="1" parent="SnUNg1FBfr4_eRWwD1X1-238">
          <mxGeometry x="30" width="170" height="20" as="geometry" />
        </mxCell>
        <mxCell id="SnUNg1FBfr4_eRWwD1X1-242" value="" style="shape=partialRectangle;collapsible=0;dropTarget=0;pointerEvents=0;fillColor=none;top=0;left=0;bottom=0;right=0;points=[[0,0.5],[1,0.5]];portConstraint=eastwest;" vertex="1" parent="SnUNg1FBfr4_eRWwD1X1-228">
          <mxGeometry y="120" width="200" height="30" as="geometry" />
        </mxCell>
        <mxCell id="SnUNg1FBfr4_eRWwD1X1-243" value="" style="shape=partialRectangle;connectable=0;fillColor=none;top=0;left=0;bottom=0;right=0;editable=1;overflow=hidden;" vertex="1" parent="SnUNg1FBfr4_eRWwD1X1-242">
          <mxGeometry width="30" height="30" as="geometry" />
        </mxCell>
        <mxCell id="SnUNg1FBfr4_eRWwD1X1-244" value="" style="shape=partialRectangle;connectable=0;fillColor=none;top=0;left=0;bottom=0;right=0;align=left;spacingLeft=6;overflow=hidden;" vertex="1" parent="SnUNg1FBfr4_eRWwD1X1-242">
          <mxGeometry x="30" width="170" height="30" as="geometry" />
        </mxCell>
        <mxCell id="SnUNg1FBfr4_eRWwD1X1-245" value="sample_product_mapping_details" style="shape=table;startSize=30;container=1;collapsible=1;childLayout=tableLayout;fixedRows=1;rowLines=0;fontStyle=1;align=center;resizeLast=1;fillColor=none;" vertex="1" parent="1">
          <mxGeometry x="960" y="40" width="240" height="240" as="geometry" />
        </mxCell>
        <mxCell id="SnUNg1FBfr4_eRWwD1X1-246" value="" style="shape=partialRectangle;collapsible=0;dropTarget=0;pointerEvents=0;fillColor=none;top=0;left=0;bottom=1;right=0;points=[[0,0.5],[1,0.5]];portConstraint=eastwest;" vertex="1" parent="SnUNg1FBfr4_eRWwD1X1-245">
          <mxGeometry y="30" width="240" height="30" as="geometry" />
        </mxCell>
        <mxCell id="SnUNg1FBfr4_eRWwD1X1-247" value="PK" style="shape=partialRectangle;connectable=0;fillColor=none;top=0;left=0;bottom=0;right=0;fontStyle=1;overflow=hidden;" vertex="1" parent="SnUNg1FBfr4_eRWwD1X1-246">
          <mxGeometry width="30" height="30" as="geometry" />
        </mxCell>
        <mxCell id="SnUNg1FBfr4_eRWwD1X1-248" value="id varchar(24) NOT NULL" style="shape=partialRectangle;connectable=0;fillColor=none;top=0;left=0;bottom=0;right=0;align=left;spacingLeft=6;fontStyle=5;overflow=hidden;" vertex="1" parent="SnUNg1FBfr4_eRWwD1X1-246">
          <mxGeometry x="30" width="210" height="30" as="geometry" />
        </mxCell>
        <mxCell id="SnUNg1FBfr4_eRWwD1X1-249" value="" style="shape=partialRectangle;collapsible=0;dropTarget=0;pointerEvents=0;fillColor=none;top=0;left=0;bottom=0;right=0;points=[[0,0.5],[1,0.5]];portConstraint=eastwest;" vertex="1" parent="SnUNg1FBfr4_eRWwD1X1-245">
          <mxGeometry y="60" width="240" height="20" as="geometry" />
        </mxCell>
        <mxCell id="SnUNg1FBfr4_eRWwD1X1-250" value="" style="shape=partialRectangle;connectable=0;fillColor=none;top=0;left=0;bottom=0;right=0;editable=1;overflow=hidden;" vertex="1" parent="SnUNg1FBfr4_eRWwD1X1-249">
          <mxGeometry width="30" height="20" as="geometry" />
        </mxCell>
        <mxCell id="SnUNg1FBfr4_eRWwD1X1-251" value="tentant_id varchar(24)" style="shape=partialRectangle;connectable=0;fillColor=none;top=0;left=0;bottom=0;right=0;align=left;spacingLeft=6;overflow=hidden;" vertex="1" parent="SnUNg1FBfr4_eRWwD1X1-249">
          <mxGeometry x="30" width="210" height="20" as="geometry" />
        </mxCell>
        <mxCell id="SnUNg1FBfr4_eRWwD1X1-284" value="" style="shape=partialRectangle;collapsible=0;dropTarget=0;pointerEvents=0;fillColor=none;top=0;left=0;bottom=0;right=0;points=[[0,0.5],[1,0.5]];portConstraint=eastwest;" vertex="1" parent="SnUNg1FBfr4_eRWwD1X1-245">
          <mxGeometry y="80" width="240" height="20" as="geometry" />
        </mxCell>
        <mxCell id="SnUNg1FBfr4_eRWwD1X1-285" value="" style="shape=partialRectangle;connectable=0;fillColor=none;top=0;left=0;bottom=0;right=0;editable=1;overflow=hidden;" vertex="1" parent="SnUNg1FBfr4_eRWwD1X1-284">
          <mxGeometry width="30" height="20" as="geometry" />
        </mxCell>
        <mxCell id="SnUNg1FBfr4_eRWwD1X1-286" value="product_id varchar(24)" style="shape=partialRectangle;connectable=0;fillColor=none;top=0;left=0;bottom=0;right=0;align=left;spacingLeft=6;overflow=hidden;" vertex="1" parent="SnUNg1FBfr4_eRWwD1X1-284">
          <mxGeometry x="30" width="210" height="20" as="geometry" />
        </mxCell>
        <mxCell id="SnUNg1FBfr4_eRWwD1X1-252" value="" style="shape=partialRectangle;collapsible=0;dropTarget=0;pointerEvents=0;fillColor=none;top=0;left=0;bottom=0;right=0;points=[[0,0.5],[1,0.5]];portConstraint=eastwest;" vertex="1" parent="SnUNg1FBfr4_eRWwD1X1-245">
          <mxGeometry y="100" width="240" height="20" as="geometry" />
        </mxCell>
        <mxCell id="SnUNg1FBfr4_eRWwD1X1-253" value="" style="shape=partialRectangle;connectable=0;fillColor=none;top=0;left=0;bottom=0;right=0;editable=1;overflow=hidden;" vertex="1" parent="SnUNg1FBfr4_eRWwD1X1-252">
          <mxGeometry width="30" height="20" as="geometry" />
        </mxCell>
        <mxCell id="SnUNg1FBfr4_eRWwD1X1-254" value="sample_product_mapping_id varchar(24)" style="shape=partialRectangle;connectable=0;fillColor=none;top=0;left=0;bottom=0;right=0;align=left;spacingLeft=6;overflow=hidden;" vertex="1" parent="SnUNg1FBfr4_eRWwD1X1-252">
          <mxGeometry x="30" width="210" height="20" as="geometry" />
        </mxCell>
        <mxCell id="SnUNg1FBfr4_eRWwD1X1-255" value="" style="shape=partialRectangle;collapsible=0;dropTarget=0;pointerEvents=0;fillColor=none;top=0;left=0;bottom=0;right=0;points=[[0,0.5],[1,0.5]];portConstraint=eastwest;" vertex="1" parent="SnUNg1FBfr4_eRWwD1X1-245">
          <mxGeometry y="120" width="240" height="20" as="geometry" />
        </mxCell>
        <mxCell id="SnUNg1FBfr4_eRWwD1X1-256" value="" style="shape=partialRectangle;connectable=0;fillColor=none;top=0;left=0;bottom=0;right=0;editable=1;overflow=hidden;" vertex="1" parent="SnUNg1FBfr4_eRWwD1X1-255">
          <mxGeometry width="30" height="20" as="geometry" />
        </mxCell>
        <mxCell id="SnUNg1FBfr4_eRWwD1X1-257" value="slot_no int" style="shape=partialRectangle;connectable=0;fillColor=none;top=0;left=0;bottom=0;right=0;align=left;spacingLeft=6;overflow=hidden;" vertex="1" parent="SnUNg1FBfr4_eRWwD1X1-255">
          <mxGeometry x="30" width="210" height="20" as="geometry" />
        </mxCell>
        <mxCell id="SnUNg1FBfr4_eRWwD1X1-374" value="" style="shape=partialRectangle;collapsible=0;dropTarget=0;pointerEvents=0;fillColor=none;top=0;left=0;bottom=0;right=0;points=[[0,0.5],[1,0.5]];portConstraint=eastwest;" vertex="1" parent="SnUNg1FBfr4_eRWwD1X1-245">
          <mxGeometry y="140" width="240" height="20" as="geometry" />
        </mxCell>
        <mxCell id="SnUNg1FBfr4_eRWwD1X1-375" value="" style="shape=partialRectangle;connectable=0;fillColor=none;top=0;left=0;bottom=0;right=0;editable=1;overflow=hidden;" vertex="1" parent="SnUNg1FBfr4_eRWwD1X1-374">
          <mxGeometry width="30" height="20" as="geometry" />
        </mxCell>
        <mxCell id="SnUNg1FBfr4_eRWwD1X1-376" value="slot_number varchar(2)" style="shape=partialRectangle;connectable=0;fillColor=none;top=0;left=0;bottom=0;right=0;align=left;spacingLeft=6;overflow=hidden;" vertex="1" parent="SnUNg1FBfr4_eRWwD1X1-374">
          <mxGeometry x="30" width="210" height="20" as="geometry" />
        </mxCell>
        <mxCell id="SnUNg1FBfr4_eRWwD1X1-259" value="" style="shape=partialRectangle;collapsible=0;dropTarget=0;pointerEvents=0;fillColor=none;top=0;left=0;bottom=0;right=0;points=[[0,0.5],[1,0.5]];portConstraint=eastwest;" vertex="1" parent="SnUNg1FBfr4_eRWwD1X1-245">
          <mxGeometry y="160" width="240" height="20" as="geometry" />
        </mxCell>
        <mxCell id="SnUNg1FBfr4_eRWwD1X1-260" value="" style="shape=partialRectangle;connectable=0;fillColor=none;top=0;left=0;bottom=0;right=0;editable=1;overflow=hidden;" vertex="1" parent="SnUNg1FBfr4_eRWwD1X1-259">
          <mxGeometry width="30" height="20" as="geometry" />
        </mxCell>
        <mxCell id="SnUNg1FBfr4_eRWwD1X1-261" value="quantity int" style="shape=partialRectangle;connectable=0;fillColor=none;top=0;left=0;bottom=0;right=0;align=left;spacingLeft=6;overflow=hidden;" vertex="1" parent="SnUNg1FBfr4_eRWwD1X1-259">
          <mxGeometry x="30" width="210" height="20" as="geometry" />
        </mxCell>
        <mxCell id="SnUNg1FBfr4_eRWwD1X1-378" value="" style="shape=partialRectangle;collapsible=0;dropTarget=0;pointerEvents=0;fillColor=none;top=0;left=0;bottom=0;right=0;points=[[0,0.5],[1,0.5]];portConstraint=eastwest;" vertex="1" parent="SnUNg1FBfr4_eRWwD1X1-245">
          <mxGeometry y="180" width="240" height="20" as="geometry" />
        </mxCell>
        <mxCell id="SnUNg1FBfr4_eRWwD1X1-379" value="" style="shape=partialRectangle;connectable=0;fillColor=none;top=0;left=0;bottom=0;right=0;editable=1;overflow=hidden;" vertex="1" parent="SnUNg1FBfr4_eRWwD1X1-378">
          <mxGeometry width="30" height="20" as="geometry" />
        </mxCell>
        <mxCell id="SnUNg1FBfr4_eRWwD1X1-380" value="keynum int" style="shape=partialRectangle;connectable=0;fillColor=none;top=0;left=0;bottom=0;right=0;align=left;spacingLeft=6;overflow=hidden;" vertex="1" parent="SnUNg1FBfr4_eRWwD1X1-378">
          <mxGeometry x="30" width="210" height="20" as="geometry" />
        </mxCell>
        <mxCell id="SnUNg1FBfr4_eRWwD1X1-382" value="" style="shape=partialRectangle;collapsible=0;dropTarget=0;pointerEvents=0;fillColor=none;top=0;left=0;bottom=0;right=0;points=[[0,0.5],[1,0.5]];portConstraint=eastwest;" vertex="1" parent="SnUNg1FBfr4_eRWwD1X1-245">
          <mxGeometry y="200" width="240" height="20" as="geometry" />
        </mxCell>
        <mxCell id="SnUNg1FBfr4_eRWwD1X1-383" value="" style="shape=partialRectangle;connectable=0;fillColor=none;top=0;left=0;bottom=0;right=0;editable=1;overflow=hidden;" vertex="1" parent="SnUNg1FBfr4_eRWwD1X1-382">
          <mxGeometry width="30" height="20" as="geometry" />
        </mxCell>
        <mxCell id="SnUNg1FBfr4_eRWwD1X1-384" value="price int" style="shape=partialRectangle;connectable=0;fillColor=none;top=0;left=0;bottom=0;right=0;align=left;spacingLeft=6;overflow=hidden;" vertex="1" parent="SnUNg1FBfr4_eRWwD1X1-382">
          <mxGeometry x="30" width="210" height="20" as="geometry" />
        </mxCell>
        <mxCell id="SnUNg1FBfr4_eRWwD1X1-386" value="" style="shape=partialRectangle;collapsible=0;dropTarget=0;pointerEvents=0;fillColor=none;top=0;left=0;bottom=0;right=0;points=[[0,0.5],[1,0.5]];portConstraint=eastwest;" vertex="1" parent="SnUNg1FBfr4_eRWwD1X1-245">
          <mxGeometry y="220" width="240" height="20" as="geometry" />
        </mxCell>
        <mxCell id="SnUNg1FBfr4_eRWwD1X1-387" value="" style="shape=partialRectangle;connectable=0;fillColor=none;top=0;left=0;bottom=0;right=0;editable=1;overflow=hidden;" vertex="1" parent="SnUNg1FBfr4_eRWwD1X1-386">
          <mxGeometry width="30" height="20" as="geometry" />
        </mxCell>
        <mxCell id="SnUNg1FBfr4_eRWwD1X1-388" value="stock int" style="shape=partialRectangle;connectable=0;fillColor=none;top=0;left=0;bottom=0;right=0;align=left;spacingLeft=6;overflow=hidden;" vertex="1" parent="SnUNg1FBfr4_eRWwD1X1-386">
          <mxGeometry x="30" width="210" height="20" as="geometry" />
        </mxCell>
        <mxCell id="SnUNg1FBfr4_eRWwD1X1-282" value="" style="fontSize=12;html=1;endArrow=ERoneToMany;" edge="1" parent="1">
          <mxGeometry width="100" height="100" relative="1" as="geometry">
            <mxPoint x="1080" y="359" as="sourcePoint" />
            <mxPoint x="1080" y="280" as="targetPoint" />
          </mxGeometry>
        </mxCell>
        <mxCell id="SnUNg1FBfr4_eRWwD1X1-287" value="" style="edgeStyle=entityRelationEdgeStyle;fontSize=12;html=1;endArrow=ERoneToMany;entryX=0;entryY=0.5;entryDx=0;entryDy=0;exitX=1;exitY=0.5;exitDx=0;exitDy=0;" edge="1" parent="1" source="SnUNg1FBfr4_eRWwD1X1-66" target="SnUNg1FBfr4_eRWwD1X1-252">
          <mxGeometry width="100" height="100" relative="1" as="geometry">
            <mxPoint x="820" y="340" as="sourcePoint" />
            <mxPoint x="920" y="240" as="targetPoint" />
          </mxGeometry>
        </mxCell>
        <mxCell id="SnUNg1FBfr4_eRWwD1X1-288" value="" style="edgeStyle=elbowEdgeStyle;fontSize=12;html=1;endArrow=ERoneToMany;elbow=vertical;" edge="1" parent="1">
          <mxGeometry width="100" height="100" relative="1" as="geometry">
            <mxPoint x="540" y="360" as="sourcePoint" />
            <mxPoint x="1030" y="280" as="targetPoint" />
            <Array as="points">
              <mxPoint x="800" y="300" />
            </Array>
          </mxGeometry>
        </mxCell>
        <mxCell id="SnUNg1FBfr4_eRWwD1X1-289" value="" style="edgeStyle=elbowEdgeStyle;fontSize=12;html=1;endArrow=ERoneToMany;entryX=0.25;entryY=0;entryDx=0;entryDy=0;exitX=0.846;exitY=0.007;exitDx=0;exitDy=0;exitPerimeter=0;elbow=vertical;" edge="1" parent="1" source="SnUNg1FBfr4_eRWwD1X1-17" target="SnUNg1FBfr4_eRWwD1X1-228">
          <mxGeometry width="100" height="100" relative="1" as="geometry">
            <mxPoint x="680" y="450" as="sourcePoint" />
            <mxPoint x="780" y="350" as="targetPoint" />
            <Array as="points">
              <mxPoint x="810" y="340" />
            </Array>
          </mxGeometry>
        </mxCell>
        <mxCell id="SnUNg1FBfr4_eRWwD1X1-290" value="users" style="shape=table;startSize=30;container=1;collapsible=1;childLayout=tableLayout;fixedRows=1;rowLines=0;fontStyle=1;align=center;resizeLast=1;fillColor=none;" vertex="1" parent="1">
          <mxGeometry x="980" y="680" width="200" height="280" as="geometry" />
        </mxCell>
        <mxCell id="SnUNg1FBfr4_eRWwD1X1-291" value="" style="shape=partialRectangle;collapsible=0;dropTarget=0;pointerEvents=0;fillColor=none;top=0;left=0;bottom=1;right=0;points=[[0,0.5],[1,0.5]];portConstraint=eastwest;" vertex="1" parent="SnUNg1FBfr4_eRWwD1X1-290">
          <mxGeometry y="30" width="200" height="30" as="geometry" />
        </mxCell>
        <mxCell id="SnUNg1FBfr4_eRWwD1X1-292" value="PK" style="shape=partialRectangle;connectable=0;fillColor=none;top=0;left=0;bottom=0;right=0;fontStyle=1;overflow=hidden;" vertex="1" parent="SnUNg1FBfr4_eRWwD1X1-291">
          <mxGeometry width="30" height="30" as="geometry" />
        </mxCell>
        <mxCell id="SnUNg1FBfr4_eRWwD1X1-293" value="id varchar(24) NOT NULL&#xa;" style="shape=partialRectangle;connectable=0;fillColor=none;top=0;left=0;bottom=0;right=0;align=left;spacingLeft=6;fontStyle=5;overflow=hidden;" vertex="1" parent="SnUNg1FBfr4_eRWwD1X1-291">
          <mxGeometry x="30" width="170" height="30" as="geometry" />
        </mxCell>
        <mxCell id="SnUNg1FBfr4_eRWwD1X1-321" value="" style="shape=partialRectangle;collapsible=0;dropTarget=0;pointerEvents=0;fillColor=none;top=0;left=0;bottom=0;right=0;points=[[0,0.5],[1,0.5]];portConstraint=eastwest;" vertex="1" parent="SnUNg1FBfr4_eRWwD1X1-290">
          <mxGeometry y="60" width="200" height="20" as="geometry" />
        </mxCell>
        <mxCell id="SnUNg1FBfr4_eRWwD1X1-322" value="" style="shape=partialRectangle;connectable=0;fillColor=none;top=0;left=0;bottom=0;right=0;editable=1;overflow=hidden;" vertex="1" parent="SnUNg1FBfr4_eRWwD1X1-321">
          <mxGeometry width="30" height="20" as="geometry" />
        </mxCell>
        <mxCell id="SnUNg1FBfr4_eRWwD1X1-323" value="tenant_id varchar(24)" style="shape=partialRectangle;connectable=0;fillColor=none;top=0;left=0;bottom=0;right=0;align=left;spacingLeft=6;overflow=hidden;" vertex="1" parent="SnUNg1FBfr4_eRWwD1X1-321">
          <mxGeometry x="30" width="170" height="20" as="geometry" />
        </mxCell>
        <mxCell id="SnUNg1FBfr4_eRWwD1X1-351" value="" style="shape=partialRectangle;collapsible=0;dropTarget=0;pointerEvents=0;fillColor=none;top=0;left=0;bottom=0;right=0;points=[[0,0.5],[1,0.5]];portConstraint=eastwest;" vertex="1" parent="SnUNg1FBfr4_eRWwD1X1-290">
          <mxGeometry y="80" width="200" height="20" as="geometry" />
        </mxCell>
        <mxCell id="SnUNg1FBfr4_eRWwD1X1-352" value="" style="shape=partialRectangle;connectable=0;fillColor=none;top=0;left=0;bottom=0;right=0;editable=1;overflow=hidden;" vertex="1" parent="SnUNg1FBfr4_eRWwD1X1-351">
          <mxGeometry width="30" height="20" as="geometry" />
        </mxCell>
        <mxCell id="SnUNg1FBfr4_eRWwD1X1-353" value="user_group_id varchar(24)" style="shape=partialRectangle;connectable=0;fillColor=none;top=0;left=0;bottom=0;right=0;align=left;spacingLeft=6;overflow=hidden;" vertex="1" parent="SnUNg1FBfr4_eRWwD1X1-351">
          <mxGeometry x="30" width="170" height="20" as="geometry" />
        </mxCell>
        <mxCell id="SnUNg1FBfr4_eRWwD1X1-355" value="" style="shape=partialRectangle;collapsible=0;dropTarget=0;pointerEvents=0;fillColor=none;top=0;left=0;bottom=0;right=0;points=[[0,0.5],[1,0.5]];portConstraint=eastwest;" vertex="1" parent="SnUNg1FBfr4_eRWwD1X1-290">
          <mxGeometry y="100" width="200" height="20" as="geometry" />
        </mxCell>
        <mxCell id="SnUNg1FBfr4_eRWwD1X1-356" value="" style="shape=partialRectangle;connectable=0;fillColor=none;top=0;left=0;bottom=0;right=0;editable=1;overflow=hidden;" vertex="1" parent="SnUNg1FBfr4_eRWwD1X1-355">
          <mxGeometry width="30" height="20" as="geometry" />
        </mxCell>
        <mxCell id="SnUNg1FBfr4_eRWwD1X1-357" value="role int(11)" style="shape=partialRectangle;connectable=0;fillColor=none;top=0;left=0;bottom=0;right=0;align=left;spacingLeft=6;overflow=hidden;" vertex="1" parent="SnUNg1FBfr4_eRWwD1X1-355">
          <mxGeometry x="30" width="170" height="20" as="geometry" />
        </mxCell>
        <mxCell id="SnUNg1FBfr4_eRWwD1X1-294" value="" style="shape=partialRectangle;collapsible=0;dropTarget=0;pointerEvents=0;fillColor=none;top=0;left=0;bottom=0;right=0;points=[[0,0.5],[1,0.5]];portConstraint=eastwest;" vertex="1" parent="SnUNg1FBfr4_eRWwD1X1-290">
          <mxGeometry y="120" width="200" height="20" as="geometry" />
        </mxCell>
        <mxCell id="SnUNg1FBfr4_eRWwD1X1-295" value="" style="shape=partialRectangle;connectable=0;fillColor=none;top=0;left=0;bottom=0;right=0;editable=1;overflow=hidden;" vertex="1" parent="SnUNg1FBfr4_eRWwD1X1-294">
          <mxGeometry width="30" height="20" as="geometry" />
        </mxCell>
        <mxCell id="SnUNg1FBfr4_eRWwD1X1-296" value="username varchar(64)" style="shape=partialRectangle;connectable=0;fillColor=none;top=0;left=0;bottom=0;right=0;align=left;spacingLeft=6;overflow=hidden;" vertex="1" parent="SnUNg1FBfr4_eRWwD1X1-294">
          <mxGeometry x="30" width="170" height="20" as="geometry" />
        </mxCell>
        <mxCell id="SnUNg1FBfr4_eRWwD1X1-297" value="" style="shape=partialRectangle;collapsible=0;dropTarget=0;pointerEvents=0;fillColor=none;top=0;left=0;bottom=0;right=0;points=[[0,0.5],[1,0.5]];portConstraint=eastwest;" vertex="1" parent="SnUNg1FBfr4_eRWwD1X1-290">
          <mxGeometry y="140" width="200" height="20" as="geometry" />
        </mxCell>
        <mxCell id="SnUNg1FBfr4_eRWwD1X1-298" value="" style="shape=partialRectangle;connectable=0;fillColor=none;top=0;left=0;bottom=0;right=0;editable=1;overflow=hidden;" vertex="1" parent="SnUNg1FBfr4_eRWwD1X1-297">
          <mxGeometry width="30" height="20" as="geometry" />
        </mxCell>
        <mxCell id="SnUNg1FBfr4_eRWwD1X1-299" value="password varchar(64)" style="shape=partialRectangle;connectable=0;fillColor=none;top=0;left=0;bottom=0;right=0;align=left;spacingLeft=6;overflow=hidden;" vertex="1" parent="SnUNg1FBfr4_eRWwD1X1-297">
          <mxGeometry x="30" width="170" height="20" as="geometry" />
        </mxCell>
        <mxCell id="SnUNg1FBfr4_eRWwD1X1-304" value="" style="shape=partialRectangle;collapsible=0;dropTarget=0;pointerEvents=0;fillColor=none;top=0;left=0;bottom=0;right=0;points=[[0,0.5],[1,0.5]];portConstraint=eastwest;" vertex="1" parent="SnUNg1FBfr4_eRWwD1X1-290">
          <mxGeometry y="160" width="200" height="20" as="geometry" />
        </mxCell>
        <mxCell id="SnUNg1FBfr4_eRWwD1X1-305" value="" style="shape=partialRectangle;connectable=0;fillColor=none;top=0;left=0;bottom=0;right=0;editable=1;overflow=hidden;" vertex="1" parent="SnUNg1FBfr4_eRWwD1X1-304">
          <mxGeometry width="30" height="20" as="geometry" />
        </mxCell>
        <mxCell id="SnUNg1FBfr4_eRWwD1X1-306" value="salt varchar(8)" style="shape=partialRectangle;connectable=0;fillColor=none;top=0;left=0;bottom=0;right=0;align=left;spacingLeft=6;overflow=hidden;" vertex="1" parent="SnUNg1FBfr4_eRWwD1X1-304">
          <mxGeometry x="30" width="170" height="20" as="geometry" />
        </mxCell>
        <mxCell id="SnUNg1FBfr4_eRWwD1X1-300" value="" style="shape=partialRectangle;collapsible=0;dropTarget=0;pointerEvents=0;fillColor=none;top=0;left=0;bottom=0;right=0;points=[[0,0.5],[1,0.5]];portConstraint=eastwest;" vertex="1" parent="SnUNg1FBfr4_eRWwD1X1-290">
          <mxGeometry y="180" width="200" height="20" as="geometry" />
        </mxCell>
        <mxCell id="SnUNg1FBfr4_eRWwD1X1-301" value="" style="shape=partialRectangle;connectable=0;fillColor=none;top=0;left=0;bottom=0;right=0;editable=1;overflow=hidden;" vertex="1" parent="SnUNg1FBfr4_eRWwD1X1-300">
          <mxGeometry width="30" height="20" as="geometry" />
        </mxCell>
        <mxCell id="SnUNg1FBfr4_eRWwD1X1-302" value="email varchar(64)" style="shape=partialRectangle;connectable=0;fillColor=none;top=0;left=0;bottom=0;right=0;align=left;spacingLeft=6;overflow=hidden;" vertex="1" parent="SnUNg1FBfr4_eRWwD1X1-300">
          <mxGeometry x="30" width="170" height="20" as="geometry" />
        </mxCell>
        <mxCell id="SnUNg1FBfr4_eRWwD1X1-308" value="" style="shape=partialRectangle;collapsible=0;dropTarget=0;pointerEvents=0;fillColor=none;top=0;left=0;bottom=0;right=0;points=[[0,0.5],[1,0.5]];portConstraint=eastwest;" vertex="1" parent="SnUNg1FBfr4_eRWwD1X1-290">
          <mxGeometry y="200" width="200" height="20" as="geometry" />
        </mxCell>
        <mxCell id="SnUNg1FBfr4_eRWwD1X1-309" value="" style="shape=partialRectangle;connectable=0;fillColor=none;top=0;left=0;bottom=0;right=0;editable=1;overflow=hidden;" vertex="1" parent="SnUNg1FBfr4_eRWwD1X1-308">
          <mxGeometry width="30" height="20" as="geometry" />
        </mxCell>
        <mxCell id="SnUNg1FBfr4_eRWwD1X1-310" value="is_online bit" style="shape=partialRectangle;connectable=0;fillColor=none;top=0;left=0;bottom=0;right=0;align=left;spacingLeft=6;overflow=hidden;" vertex="1" parent="SnUNg1FBfr4_eRWwD1X1-308">
          <mxGeometry x="30" width="170" height="20" as="geometry" />
        </mxCell>
        <mxCell id="SnUNg1FBfr4_eRWwD1X1-312" value="" style="shape=partialRectangle;collapsible=0;dropTarget=0;pointerEvents=0;fillColor=none;top=0;left=0;bottom=0;right=0;points=[[0,0.5],[1,0.5]];portConstraint=eastwest;" vertex="1" parent="SnUNg1FBfr4_eRWwD1X1-290">
          <mxGeometry y="220" width="200" height="20" as="geometry" />
        </mxCell>
        <mxCell id="SnUNg1FBfr4_eRWwD1X1-313" value="" style="shape=partialRectangle;connectable=0;fillColor=none;top=0;left=0;bottom=0;right=0;editable=1;overflow=hidden;" vertex="1" parent="SnUNg1FBfr4_eRWwD1X1-312">
          <mxGeometry width="30" height="20" as="geometry" />
        </mxCell>
        <mxCell id="SnUNg1FBfr4_eRWwD1X1-314" value="full_name nvarchar(64)" style="shape=partialRectangle;connectable=0;fillColor=none;top=0;left=0;bottom=0;right=0;align=left;spacingLeft=6;overflow=hidden;" vertex="1" parent="SnUNg1FBfr4_eRWwD1X1-312">
          <mxGeometry x="30" width="170" height="20" as="geometry" />
        </mxCell>
        <mxCell id="SnUNg1FBfr4_eRWwD1X1-316" value="" style="shape=partialRectangle;collapsible=0;dropTarget=0;pointerEvents=0;fillColor=none;top=0;left=0;bottom=0;right=0;points=[[0,0.5],[1,0.5]];portConstraint=eastwest;" vertex="1" parent="SnUNg1FBfr4_eRWwD1X1-290">
          <mxGeometry y="240" width="200" height="20" as="geometry" />
        </mxCell>
        <mxCell id="SnUNg1FBfr4_eRWwD1X1-317" value="" style="shape=partialRectangle;connectable=0;fillColor=none;top=0;left=0;bottom=0;right=0;editable=1;overflow=hidden;" vertex="1" parent="SnUNg1FBfr4_eRWwD1X1-316">
          <mxGeometry width="30" height="20" as="geometry" />
        </mxCell>
        <mxCell id="SnUNg1FBfr4_eRWwD1X1-318" value="type int" style="shape=partialRectangle;connectable=0;fillColor=none;top=0;left=0;bottom=0;right=0;align=left;spacingLeft=6;overflow=hidden;" vertex="1" parent="SnUNg1FBfr4_eRWwD1X1-316">
          <mxGeometry x="30" width="170" height="20" as="geometry" />
        </mxCell>
        <mxCell id="SnUNg1FBfr4_eRWwD1X1-319" value="" style="edgeStyle=elbowEdgeStyle;fontSize=12;html=1;endArrow=ERoneToMany;entryX=0.5;entryY=0;entryDx=0;entryDy=0;elbow=vertical;" edge="1" parent="1" target="SnUNg1FBfr4_eRWwD1X1-290">
          <mxGeometry width="100" height="100" relative="1" as="geometry">
            <mxPoint x="540" y="520" as="sourcePoint" />
            <mxPoint x="710" y="640" as="targetPoint" />
            <Array as="points">
              <mxPoint x="810" y="640" />
            </Array>
          </mxGeometry>
        </mxCell>
        <mxCell id="SnUNg1FBfr4_eRWwD1X1-324" value="user_groups" style="shape=table;startSize=30;container=1;collapsible=1;childLayout=tableLayout;fixedRows=1;rowLines=0;fontStyle=1;align=center;resizeLast=1;fillColor=none;" vertex="1" parent="1">
          <mxGeometry x="1240" y="680" width="200" height="160" as="geometry" />
        </mxCell>
        <mxCell id="SnUNg1FBfr4_eRWwD1X1-325" value="" style="shape=partialRectangle;collapsible=0;dropTarget=0;pointerEvents=0;fillColor=none;top=0;left=0;bottom=1;right=0;points=[[0,0.5],[1,0.5]];portConstraint=eastwest;" vertex="1" parent="SnUNg1FBfr4_eRWwD1X1-324">
          <mxGeometry y="30" width="200" height="30" as="geometry" />
        </mxCell>
        <mxCell id="SnUNg1FBfr4_eRWwD1X1-326" value="PK" style="shape=partialRectangle;connectable=0;fillColor=none;top=0;left=0;bottom=0;right=0;fontStyle=1;overflow=hidden;" vertex="1" parent="SnUNg1FBfr4_eRWwD1X1-325">
          <mxGeometry width="30" height="30" as="geometry" />
        </mxCell>
        <mxCell id="SnUNg1FBfr4_eRWwD1X1-327" value="id varchar(24) NOT NULL" style="shape=partialRectangle;connectable=0;fillColor=none;top=0;left=0;bottom=0;right=0;align=left;spacingLeft=6;fontStyle=5;overflow=hidden;" vertex="1" parent="SnUNg1FBfr4_eRWwD1X1-325">
          <mxGeometry x="30" width="170" height="30" as="geometry" />
        </mxCell>
        <mxCell id="SnUNg1FBfr4_eRWwD1X1-328" value="" style="shape=partialRectangle;collapsible=0;dropTarget=0;pointerEvents=0;fillColor=none;top=0;left=0;bottom=0;right=0;points=[[0,0.5],[1,0.5]];portConstraint=eastwest;" vertex="1" parent="SnUNg1FBfr4_eRWwD1X1-324">
          <mxGeometry y="60" width="200" height="20" as="geometry" />
        </mxCell>
        <mxCell id="SnUNg1FBfr4_eRWwD1X1-329" value="" style="shape=partialRectangle;connectable=0;fillColor=none;top=0;left=0;bottom=0;right=0;editable=1;overflow=hidden;" vertex="1" parent="SnUNg1FBfr4_eRWwD1X1-328">
          <mxGeometry width="30" height="20" as="geometry" />
        </mxCell>
        <mxCell id="SnUNg1FBfr4_eRWwD1X1-330" value="tenant_id varchar(24)" style="shape=partialRectangle;connectable=0;fillColor=none;top=0;left=0;bottom=0;right=0;align=left;spacingLeft=6;overflow=hidden;" vertex="1" parent="SnUNg1FBfr4_eRWwD1X1-328">
          <mxGeometry x="30" width="170" height="20" as="geometry" />
        </mxCell>
        <mxCell id="SnUNg1FBfr4_eRWwD1X1-331" value="" style="shape=partialRectangle;collapsible=0;dropTarget=0;pointerEvents=0;fillColor=none;top=0;left=0;bottom=0;right=0;points=[[0,0.5],[1,0.5]];portConstraint=eastwest;" vertex="1" parent="SnUNg1FBfr4_eRWwD1X1-324">
          <mxGeometry y="80" width="200" height="20" as="geometry" />
        </mxCell>
        <mxCell id="SnUNg1FBfr4_eRWwD1X1-332" value="" style="shape=partialRectangle;connectable=0;fillColor=none;top=0;left=0;bottom=0;right=0;editable=1;overflow=hidden;" vertex="1" parent="SnUNg1FBfr4_eRWwD1X1-331">
          <mxGeometry width="30" height="20" as="geometry" />
        </mxCell>
        <mxCell id="SnUNg1FBfr4_eRWwD1X1-333" value="name" style="shape=partialRectangle;connectable=0;fillColor=none;top=0;left=0;bottom=0;right=0;align=left;spacingLeft=6;overflow=hidden;" vertex="1" parent="SnUNg1FBfr4_eRWwD1X1-331">
          <mxGeometry x="30" width="170" height="20" as="geometry" />
        </mxCell>
        <mxCell id="SnUNg1FBfr4_eRWwD1X1-359" value="" style="shape=partialRectangle;collapsible=0;dropTarget=0;pointerEvents=0;fillColor=none;top=0;left=0;bottom=0;right=0;points=[[0,0.5],[1,0.5]];portConstraint=eastwest;" vertex="1" parent="SnUNg1FBfr4_eRWwD1X1-324">
          <mxGeometry y="100" width="200" height="20" as="geometry" />
        </mxCell>
        <mxCell id="SnUNg1FBfr4_eRWwD1X1-360" value="" style="shape=partialRectangle;connectable=0;fillColor=none;top=0;left=0;bottom=0;right=0;editable=1;overflow=hidden;" vertex="1" parent="SnUNg1FBfr4_eRWwD1X1-359">
          <mxGeometry width="30" height="20" as="geometry" />
        </mxCell>
        <mxCell id="SnUNg1FBfr4_eRWwD1X1-361" value="role int(11)" style="shape=partialRectangle;connectable=0;fillColor=none;top=0;left=0;bottom=0;right=0;align=left;spacingLeft=6;overflow=hidden;" vertex="1" parent="SnUNg1FBfr4_eRWwD1X1-359">
          <mxGeometry x="30" width="170" height="20" as="geometry" />
        </mxCell>
        <mxCell id="SnUNg1FBfr4_eRWwD1X1-334" value="" style="shape=partialRectangle;collapsible=0;dropTarget=0;pointerEvents=0;fillColor=none;top=0;left=0;bottom=0;right=0;points=[[0,0.5],[1,0.5]];portConstraint=eastwest;" vertex="1" parent="SnUNg1FBfr4_eRWwD1X1-324">
          <mxGeometry y="120" width="200" height="30" as="geometry" />
        </mxCell>
        <mxCell id="SnUNg1FBfr4_eRWwD1X1-335" value="" style="shape=partialRectangle;connectable=0;fillColor=none;top=0;left=0;bottom=0;right=0;editable=1;overflow=hidden;" vertex="1" parent="SnUNg1FBfr4_eRWwD1X1-334">
          <mxGeometry width="30" height="30" as="geometry" />
        </mxCell>
        <mxCell id="SnUNg1FBfr4_eRWwD1X1-336" value="" style="shape=partialRectangle;connectable=0;fillColor=none;top=0;left=0;bottom=0;right=0;align=left;spacingLeft=6;overflow=hidden;" vertex="1" parent="SnUNg1FBfr4_eRWwD1X1-334">
          <mxGeometry x="30" width="170" height="30" as="geometry" />
        </mxCell>
        <mxCell id="SnUNg1FBfr4_eRWwD1X1-337" value="permissions" style="shape=table;startSize=30;container=1;collapsible=1;childLayout=tableLayout;fixedRows=1;rowLines=0;fontStyle=1;align=center;resizeLast=1;fillColor=none;" vertex="1" parent="1">
          <mxGeometry x="1240" y="1000" width="200" height="160" as="geometry" />
        </mxCell>
        <mxCell id="SnUNg1FBfr4_eRWwD1X1-338" value="" style="shape=partialRectangle;collapsible=0;dropTarget=0;pointerEvents=0;fillColor=none;top=0;left=0;bottom=1;right=0;points=[[0,0.5],[1,0.5]];portConstraint=eastwest;" vertex="1" parent="SnUNg1FBfr4_eRWwD1X1-337">
          <mxGeometry y="30" width="200" height="30" as="geometry" />
        </mxCell>
        <mxCell id="SnUNg1FBfr4_eRWwD1X1-339" value="PK" style="shape=partialRectangle;connectable=0;fillColor=none;top=0;left=0;bottom=0;right=0;fontStyle=1;overflow=hidden;" vertex="1" parent="SnUNg1FBfr4_eRWwD1X1-338">
          <mxGeometry width="30" height="30" as="geometry" />
        </mxCell>
        <mxCell id="SnUNg1FBfr4_eRWwD1X1-340" value="id varchar(24) NOT NULL" style="shape=partialRectangle;connectable=0;fillColor=none;top=0;left=0;bottom=0;right=0;align=left;spacingLeft=6;fontStyle=5;overflow=hidden;" vertex="1" parent="SnUNg1FBfr4_eRWwD1X1-338">
          <mxGeometry x="30" width="170" height="30" as="geometry" />
        </mxCell>
        <mxCell id="SnUNg1FBfr4_eRWwD1X1-341" value="" style="shape=partialRectangle;collapsible=0;dropTarget=0;pointerEvents=0;fillColor=none;top=0;left=0;bottom=0;right=0;points=[[0,0.5],[1,0.5]];portConstraint=eastwest;" vertex="1" parent="SnUNg1FBfr4_eRWwD1X1-337">
          <mxGeometry y="60" width="200" height="20" as="geometry" />
        </mxCell>
        <mxCell id="SnUNg1FBfr4_eRWwD1X1-342" value="" style="shape=partialRectangle;connectable=0;fillColor=none;top=0;left=0;bottom=0;right=0;editable=1;overflow=hidden;" vertex="1" parent="SnUNg1FBfr4_eRWwD1X1-341">
          <mxGeometry width="30" height="20" as="geometry" />
        </mxCell>
        <mxCell id="SnUNg1FBfr4_eRWwD1X1-343" value="bit int(11)" style="shape=partialRectangle;connectable=0;fillColor=none;top=0;left=0;bottom=0;right=0;align=left;spacingLeft=6;overflow=hidden;" vertex="1" parent="SnUNg1FBfr4_eRWwD1X1-341">
          <mxGeometry x="30" width="170" height="20" as="geometry" />
        </mxCell>
        <mxCell id="SnUNg1FBfr4_eRWwD1X1-344" value="" style="shape=partialRectangle;collapsible=0;dropTarget=0;pointerEvents=0;fillColor=none;top=0;left=0;bottom=0;right=0;points=[[0,0.5],[1,0.5]];portConstraint=eastwest;" vertex="1" parent="SnUNg1FBfr4_eRWwD1X1-337">
          <mxGeometry y="80" width="200" height="20" as="geometry" />
        </mxCell>
        <mxCell id="SnUNg1FBfr4_eRWwD1X1-345" value="" style="shape=partialRectangle;connectable=0;fillColor=none;top=0;left=0;bottom=0;right=0;editable=1;overflow=hidden;" vertex="1" parent="SnUNg1FBfr4_eRWwD1X1-344">
          <mxGeometry width="30" height="20" as="geometry" />
        </mxCell>
        <mxCell id="SnUNg1FBfr4_eRWwD1X1-346" value="service_name varchar(64)" style="shape=partialRectangle;connectable=0;fillColor=none;top=0;left=0;bottom=0;right=0;align=left;spacingLeft=6;overflow=hidden;" vertex="1" parent="SnUNg1FBfr4_eRWwD1X1-344">
          <mxGeometry x="30" width="170" height="20" as="geometry" />
        </mxCell>
        <mxCell id="SnUNg1FBfr4_eRWwD1X1-347" value="" style="shape=partialRectangle;collapsible=0;dropTarget=0;pointerEvents=0;fillColor=none;top=0;left=0;bottom=0;right=0;points=[[0,0.5],[1,0.5]];portConstraint=eastwest;" vertex="1" parent="SnUNg1FBfr4_eRWwD1X1-337">
          <mxGeometry y="100" width="200" height="30" as="geometry" />
        </mxCell>
        <mxCell id="SnUNg1FBfr4_eRWwD1X1-348" value="" style="shape=partialRectangle;connectable=0;fillColor=none;top=0;left=0;bottom=0;right=0;editable=1;overflow=hidden;" vertex="1" parent="SnUNg1FBfr4_eRWwD1X1-347">
          <mxGeometry width="30" height="30" as="geometry" />
        </mxCell>
        <mxCell id="SnUNg1FBfr4_eRWwD1X1-349" value="" style="shape=partialRectangle;connectable=0;fillColor=none;top=0;left=0;bottom=0;right=0;align=left;spacingLeft=6;overflow=hidden;" vertex="1" parent="SnUNg1FBfr4_eRWwD1X1-347">
          <mxGeometry x="30" width="170" height="30" as="geometry" />
        </mxCell>
        <mxCell id="SnUNg1FBfr4_eRWwD1X1-364" value="" style="edgeStyle=orthogonalEdgeStyle;fontSize=12;html=1;endArrow=ERoneToMany;exitX=0.5;exitY=1;exitDx=0;exitDy=0;" edge="1" parent="1" source="SnUNg1FBfr4_eRWwD1X1-290" target="SnUNg1FBfr4_eRWwD1X1-341">
          <mxGeometry width="100" height="100" relative="1" as="geometry">
            <mxPoint x="1140" y="920" as="sourcePoint" />
            <mxPoint x="1240" y="820" as="targetPoint" />
          </mxGeometry>
        </mxCell>
        <mxCell id="SnUNg1FBfr4_eRWwD1X1-365" value="" style="fontSize=12;html=1;endArrow=ERoneToMany;entryX=0.5;entryY=0;entryDx=0;entryDy=0;" edge="1" parent="1" target="SnUNg1FBfr4_eRWwD1X1-337">
          <mxGeometry width="100" height="100" relative="1" as="geometry">
            <mxPoint x="1340" y="840" as="sourcePoint" />
            <mxPoint x="1280" y="840" as="targetPoint" />
          </mxGeometry>
        </mxCell>
        <mxCell id="SnUNg1FBfr4_eRWwD1X1-366" value="" style="edgeStyle=entityRelationEdgeStyle;fontSize=12;html=1;endArrow=none;exitX=0.998;exitY=0.006;exitDx=0;exitDy=0;exitPerimeter=0;entryX=0.003;entryY=1.006;entryDx=0;entryDy=0;entryPerimeter=0;startArrow=ERoneToMany;startFill=0;endFill=0;" edge="1" parent="1" source="SnUNg1FBfr4_eRWwD1X1-355" target="SnUNg1FBfr4_eRWwD1X1-331">
          <mxGeometry width="100" height="100" relative="1" as="geometry">
            <mxPoint x="1180" y="783" as="sourcePoint" />
            <mxPoint x="1242" y="783" as="targetPoint" />
          </mxGeometry>
        </mxCell>
        <mxCell id="SnUNg1FBfr4_eRWwD1X1-367" value="" style="edgeStyle=orthogonalEdgeStyle;fontSize=12;html=1;endArrow=ERoneToMany;entryX=0.5;entryY=0;entryDx=0;entryDy=0;" edge="1" parent="1" target="SnUNg1FBfr4_eRWwD1X1-324">
          <mxGeometry width="100" height="100" relative="1" as="geometry">
            <mxPoint x="570" y="520" as="sourcePoint" />
            <mxPoint x="980" y="560" as="targetPoint" />
            <Array as="points">
              <mxPoint x="570" y="600" />
              <mxPoint x="1340" y="600" />
            </Array>
          </mxGeometry>
        </mxCell>
      </root>
    </mxGraphModel>
  </diagram>
</mxfile>
